<svg viewBox="0 0 40 1008" xmlns="http://www.w3.org/2000/svg" xmlns:xlink="http://www.w3.org/1999/xlink" width="40.000000" height="1008.000000" fill="none">
	<defs>
		<clipPath id="clipPath_0">
			<rect width="28.000000" height="228.000000" x="6.000000" y="8.000000" fill="rgb(255,255,255)" />
		</clipPath>
		<g id="pixso_custom_effect_0">
			<effect visibility="visible" effectType="" stdDeviation="0" />
		</g>
		<filter id="filter_0" width="28.000000" height="28.000000" x="6.000000" y="8.000000" filterUnits="userSpaceOnUse" customEffect="url(#pixso_custom_effect_0)" color-interpolation-filters="sRGB">
			<feFlood flood-opacity="0" result="BackgroundImageFix" />
			<feBlend result="shape" in="SourceGraphic" in2="BackgroundImageFix" mode="normal" />
		</filter>
		<clipPath id="clipPath_1">
			<rect width="28.000000" height="28.000000" x="6.000000" y="8.000000" rx="8.000000" fill="rgb(255,255,255)" />
		</clipPath>
		<g id="pixso_custom_effect_1">
			<effect visibility="visible" effectType="gaussianBlur" stdDeviation="6" />
		</g>
		<filter id="filter_1" width="17.714355" height="13.500000" x="11.000000" y="19.000000" filterUnits="userSpaceOnUse" customEffect="url(#pixso_custom_effect_1)" color-interpolation-filters="sRGB">
			<feFlood flood-opacity="0" result="BackgroundImageFix" />
			<feBlend result="shape" in="SourceGraphic" in2="BackgroundImageFix" mode="normal" />
			<feGaussianBlur stdDeviation="2" result="effect_layerBlur_1" />
		</filter>
		<clipPath id="clipPath_2">
			<rect width="16.000000" height="16.000000" x="12.000000" y="54.000000" fill="rgb(255,255,255)" />
		</clipPath>
		<clipPath id="clipPath_3">
			<rect width="16.000000" height="16.000000" x="12.000000" y="94.000000" fill="rgb(255,255,255)" />
		</clipPath>
		<clipPath id="clipPath_4">
			<rect width="16.000000" height="16.000000" x="12.000000" y="134.000000" fill="rgb(255,255,255)" />
		</clipPath>
		<clipPath id="clipPath_5">
			<rect width="16.000000" height="16.000000" x="12.000000" y="174.000000" fill="rgb(255,255,255)" />
		</clipPath>
		<clipPath id="clipPath_6">
			<rect width="16.000000" height="16.000000" x="12.000000" y="214.000000" fill="rgb(255,255,255)" />
		</clipPath>
		<g id="pixso_custom_effect_2">
			<effect x="0.000000" y="4.000000" visibility="visible" fill="rgb(0,0,0)" fill-opacity="0.25" effectType="dropShadow" stdDeviation="12" radius="0" />
		</g>
		<filter id="filter_2" width="40.000000" height="40.000000" x="6.000000" y="134.000000" filterUnits="userSpaceOnUse" customEffect="url(#pixso_custom_effect_2)" color-interpolation-filters="sRGB">
			<feFlood flood-opacity="0" result="BackgroundImageFix" />
			<feColorMatrix result="hardAlpha" in="SourceAlpha" type="matrix" values="0 0 0 0 0 0 0 0 0 0 0 0 0 0 0 0 0 0 127 0 " />
			<feOffset dx="0.000000" dy="4.000000" in="hardAlpha" />
			<feGaussianBlur stdDeviation="4" />
			<feComposite k2="-1" k3="1" in2="hardAlpha" operator="out" />
			<feColorMatrix type="matrix" values="0 0 0 0 0 0 0 0 0 0 0 0 0 0 0 0 0 0 0.25 0 " />
			<feBlend result="effect_dropShadow_1" in2="BackgroundImageFix" mode="normal" />
			<feBlend result="shape" in="SourceGraphic" in2="effect_dropShadow_1" mode="normal" />
		</filter>
		<clipPath id="clipPath_7">
			<rect width="16.000000" height="16.000000" x="18.000000" y="142.000000" rx="8.000000" fill="rgb(255,255,255)" />
		</clipPath>
		<g id="pixso_custom_effect_3">
			<effect x="0.000000" y="4.000000" visibility="visible" fill="rgb(0,0,0)" fill-opacity="0.25" effectType="dropShadow" stdDeviation="12" radius="0" />
		</g>
		<filter id="filter_3" width="40.000000" height="40.000000" x="6.000000" y="18.000000" filterUnits="userSpaceOnUse" customEffect="url(#pixso_custom_effect_3)" color-interpolation-filters="sRGB">
			<feFlood flood-opacity="0" result="BackgroundImageFix" />
			<feColorMatrix result="hardAlpha" in="SourceAlpha" type="matrix" values="0 0 0 0 0 0 0 0 0 0 0 0 0 0 0 0 0 0 127 0 " />
			<feOffset dx="0.000000" dy="4.000000" in="hardAlpha" />
			<feGaussianBlur stdDeviation="4" />
			<feComposite k2="-1" k3="1" in2="hardAlpha" operator="out" />
			<feColorMatrix type="matrix" values="0 0 0 0 0 0 0 0 0 0 0 0 0 0 0 0 0 0 0.25 0 " />
			<feBlend result="effect_dropShadow_1" in2="BackgroundImageFix" mode="normal" />
			<feBlend result="shape" in="SourceGraphic" in2="effect_dropShadow_1" mode="normal" />
		</filter>
		<clipPath id="clipPath_8">
			<rect width="16.000000" height="16.000000" x="18.000000" y="26.000000" rx="8.000000" fill="rgb(255,255,255)" />
		</clipPath>
	</defs>
	<rect id="容器 91332810" width="40.000000" height="1008.000000" x="0.000000" y="0.000000" fill="rgb(22,24,26)" fill-opacity="0" />
	<rect id="容器 91332810" width="40.000000" height="1008.000000" x="0.000000" y="0.000000" stroke="rgb(255,255,255)" stroke-opacity="0.100000001" stroke-width="0" />
	<g id="容器 91332439" customFrame="url(#clipPath_0)">
		<rect id="容器 91332439" width="28.000000" height="228.000000" x="6.000000" y="8.000000" />
		<g id="组合 57">
			<rect id="矩形 112" width="28.000000" height="28.000000" x="6.000000" y="8.000000" rx="8.000000" fill="rgb(131,77,240)" />
			<rect id="矩形 112" width="28.000000" height="28.000000" x="6.000000" y="8.000000" rx="8.000000" fill="rgb(0,0,0)" fill-opacity="0.200000003" />
			<g filter="url(#filter_0)">
				<g id="容器 3" clip-path="url(#clipPath_1)" customFrame="url(#clipPath_1)">
					<rect id="容器 3" width="28.000000" height="28.000000" x="6.000000" y="8.000000" rx="8.000000" />
					<rect id="矩形 114" width="28.000000" height="28.000000" x="6.000000" y="8.000000" rx="6.000000" fill="rgb(255,255,255)" fill-opacity="0.0199999996" />
					<rect id="矩形 114" width="27.000000" height="27.000000" x="6.500000" y="8.500000" rx="5.500000" stroke="rgb(255,254,254)" stroke-opacity="0" stroke-width="1" />
				</g>
			</g>
			<path id="合并" d="M14 14L15.4117 14C16.239 14 17.0296 14.3417 17.5965 14.9442L17.9824 15.3543C18.5493 15.9568 19.3399 16.2985 20.1673 16.2985L26 16.2985C27.6569 16.2985 29 17.6416 29 19.2985L29 27C29 28.6569 27.6569 30 26 30L14 30C12.3431 30 11 28.6569 11 27L11 17C11 15.3431 12.3431 14 14 14ZM15.4117 15.25L14 15.25C13.7584 15.25 13.5344 15.2927 13.3282 15.3781L13.3282 15.3781C13.122 15.4636 12.9334 15.5917 12.7626 15.7626C12.5917 15.9334 12.4636 16.122 12.3781 16.3282C12.2927 16.5344 12.25 16.7584 12.25 17L12.25 27C12.25 27.2416 12.2927 27.4656 12.3781 27.6718C12.4636 27.878 12.5917 28.0666 12.7626 28.2374C12.9334 28.4083 13.122 28.5364 13.3282 28.6219C13.5344 28.7073 13.7584 28.75 14 28.75L26 28.75C26.2416 28.75 26.4656 28.7073 26.6718 28.6219C26.878 28.5364 27.0666 28.4083 27.2374 28.2374C27.4083 28.0666 27.5364 27.878 27.6219 27.6718C27.7073 27.4656 27.75 27.2416 27.75 27L27.75 19.2985C27.75 19.0569 27.7073 18.8329 27.6219 18.6267C27.5364 18.4205 27.4083 18.2319 27.2374 18.061C27.0666 17.8902 26.878 17.7621 26.6718 17.6766C26.4656 17.5912 26.2416 17.5485 26 17.5485L20.1673 17.5485C19.555 17.5485 18.991 17.437 18.4751 17.2141C17.9593 16.9911 17.4916 16.6567 17.072 16.2109L16.6862 15.8008C16.5134 15.6172 16.3208 15.4795 16.1084 15.3877C15.896 15.2959 15.6637 15.25 15.4117 15.25Z" fill="rgb(255,255,255)" fill-rule="evenodd" />
			<rect id="矩形" width="5.714287" height="1.500000" x="17.000000" y="25.000000" rx="0.750000" fill="rgb(255,255,255)" />
			<g filter="url(#filter_1)">
				<rect id="矩形" width="5.714287" height="1.500000" x="17.000000" y="25.000000" rx="0.750000" fill="rgb(255,255,255)" />
			</g>
		</g>
		<g id="组合 91332438">
			<rect id="悬浮" width="28.000000" height="28.000000" x="6.000000" y="48.000000" rx="8.000000" fill="rgb(206,209,219)" fill-opacity="0" />
			<g id="工具" clip-path="url(#clipPath_2)" customFrame="url(#clipPath_2)">
				<rect id="工具" width="16.000000" height="16.000000" x="12.000000" y="54.000000" />
				<path id="形状结合" d="M25.3446 55.1998L14.7224 55.1998C13.6792 55.1998 12.8335 56.0455 12.8335 57.0887C12.8335 58.1286 13.6739 58.9722 14.7125 58.9775C14.4699 58.9775 14.2731 59.1742 14.2731 59.4169L14.2731 66.3998C14.2731 67.7253 15.3477 68.7998 16.6731 68.7998L23.4631 68.7998C24.7886 68.7998 25.8631 67.7253 25.8631 66.3998L25.8631 59.4862C25.8631 59.2053 25.6354 58.9775 25.3545 58.9775C26.3931 58.9722 27.2335 58.1286 27.2335 57.0887C27.2335 56.0455 26.3878 55.1998 25.3446 55.1998Z" fill-rule="evenodd" stroke="rgb(255,255,255)" stroke-width="1" />
				<path id="矢量 5920" d="M18.2 64.5996L21.7 64.5996" stroke="rgb(255,255,255)" stroke-linecap="round" stroke-width="1" />
			</g>
		</g>
		<g id="组合 91332443">
			<rect id="悬浮" width="28.000000" height="28.000000" x="6.000000" y="88.000000" rx="8.000000" fill="rgb(206,209,219)" fill-opacity="0" />
			<g id="icon-搜索" customFrame="url(#clipPath_3)">
				<rect id="icon-搜索" width="16.000000" height="16.000000" x="12.000000" y="94.000000" />
				<path id="合并" d="M19 95C22.3137 95 25 97.6863 25 101C25 102.477 24.4663 103.829 23.5811 104.875L27.7524 109.046C27.9504 109.244 27.9504 109.555 27.7524 109.753C27.5544 109.951 27.2433 109.951 27.0453 109.753L22.8739 105.582C21.8287 106.467 20.4766 107 19 107C15.6863 107 13 104.314 13 101C13 97.6863 15.6863 95 19 95ZM19 96C18.3096 96 17.6698 96.122 17.0806 96.3661C16.4913 96.6102 15.9526 96.9763 15.4645 97.4645C14.9763 97.9526 14.6102 98.4913 14.3661 99.0806C14.122 99.6698 14 100.31 14 101C14 101.69 14.122 102.33 14.3661 102.919C14.6102 103.509 14.9763 104.047 15.4645 104.536C15.9526 105.024 16.4913 105.39 17.0806 105.634C17.6698 105.878 18.3096 106 19 106C19.6904 106 20.3302 105.878 20.9194 105.634C21.5087 105.39 22.0474 105.024 22.5355 104.536C23.0237 104.047 23.3898 103.509 23.6339 102.919C23.878 102.33 24 101.69 24 101C24 100.31 23.878 99.6698 23.6339 99.0806C23.3898 98.4913 23.0237 97.9526 22.5355 97.4645C22.0474 96.9763 21.5087 96.6102 20.9194 96.3661C20.3302 96.122 19.6904 96 19 96Z" fill="rgb(255,255,255)" fill-rule="evenodd" />
			</g>
		</g>
		<g id="组合 91332441">
			<rect id="悬浮" width="28.000000" height="28.000000" x="6.000000" y="128.000000" rx="8.000000" fill="rgb(206,209,219)" fill-opacity="0" />
			<rect id="矩形 7115" width="20.000000" height="20.000000" x="10.000000" y="132.000000" fill="rgb(196,196,196)" fill-opacity="0" />
			<g id="icon-源代码管理" clip-path="url(#clipPath_4)" customFrame="url(#clipPath_4)">
				<rect id="icon-源代码管理" width="16.000000" height="16.000000" x="12.000000" y="134.000000" />
				<rect id="矩形 77548" width="11.444903" height="11.444903" x="0.500000" y="0.500000" rx="2.500000" stroke="rgb(255,255,255)" stroke-width="1" transform="matrix(0.707107,0.707107,-0.707107,0.707107,20,133.2)" />
				<path id="矢量 5922" d="M17 137L21.5001 141.5" stroke="rgb(255,255,255)" stroke-width="1" />
				<path id="矢量 5923" d="M19.3999 139L19.3999 144" stroke="rgb(255,255,255)" stroke-width="1" />
				<circle id="椭圆 2625" cx="19.2996101" cy="139.300034" r="1.20000005" fill="rgb(255,255,255)" />
				<circle id="椭圆 2626" cx="19.3994637" cy="144.600327" r="1.20000005" fill="rgb(255,255,255)" />
				<circle id="椭圆 2627" cx="21.8994637" cy="141.899643" r="1.20000005" fill="rgb(255,255,255)" />
			</g>
		</g>
		<g id="组合 91332442">
			<rect id="悬浮" width="28.000000" height="28.000000" x="6.000000" y="168.000000" rx="8.000000" fill="rgb(206,209,219)" fill-opacity="0" />
			<g id="运行" clip-path="url(#clipPath_5)" customFrame="url(#clipPath_5)">
				<rect id="运行" width="16.000000" height="16.000000" x="12.000000" y="174.000000" />
				<path id="合并" d="M14.8817 178.589L12.6465 176.354C12.4485 176.156 12.4485 175.844 12.6465 175.646C12.8445 175.448 13.1557 175.448 13.3536 175.646L15.8536 178.146C15.8832 178.176 15.9083 178.208 15.9291 178.242C15.9359 177.74 16.0285 177.273 16.2071 176.842C16.3926 176.394 16.671 175.985 17.0422 175.614C17.4134 175.242 17.823 174.964 18.2711 174.778C18.7191 174.593 19.2056 174.5 19.7305 174.5L20.2696 174.5C20.7946 174.5 21.2811 174.593 21.7291 174.778C22.1772 174.964 22.5868 175.242 22.958 175.614C23.3292 175.985 23.6075 176.394 23.7931 176.842C23.9716 177.273 24.0643 177.74 24.0711 178.242C24.0918 178.208 24.117 178.176 24.1465 178.146L26.6465 175.646C26.8445 175.448 27.1557 175.448 27.3536 175.646C27.5516 175.844 27.5516 176.156 27.3536 176.354L25.1185 178.589C25.1272 178.597 25.1358 178.605 25.1444 178.614C25.263 178.733 25.3519 178.863 25.4112 179.007C25.4705 179.15 25.5001 179.305 25.5001 179.473L25.5001 181.5L27.0001 181.5C27.2801 181.5 27.5001 181.72 27.5001 182C27.5001 182.28 27.2801 182.5 27.0001 182.5L25.5001 182.5L25.5001 183.201C25.5001 183.679 25.4361 184.138 25.3082 184.579C25.1803 185.02 24.9885 185.443 24.7327 185.846L24.4693 186.262L26.3536 188.146C26.5516 188.344 26.5516 188.655 26.3536 188.853C26.1557 189.051 25.8445 189.051 25.6465 188.853L24.0715 187.278L24.0715 187.335C24.0715 187.533 24.0253 187.701 23.9329 187.836C23.8405 187.972 23.7019 188.077 23.5171 188.15C22.3872 188.595 21.2148 188.818 20.0001 188.818C19.3927 188.818 18.796 188.763 18.2098 188.651C17.6236 188.54 17.048 188.372 16.483 188.15C16.2982 188.077 16.1597 187.972 16.0673 187.836C15.9749 187.701 15.9287 187.533 15.9287 187.335L15.9287 187.278L14.3536 188.853C14.1557 189.051 13.8445 189.051 13.6465 188.853C13.4485 188.655 13.4485 188.344 13.6465 188.146L15.5309 186.262L15.2675 185.846C15.0117 185.443 14.8198 185.02 14.6919 184.579C14.564 184.138 14.5001 183.679 14.5001 183.201L14.5001 182.5L13.0001 182.5C12.7201 182.5 12.5001 182.28 12.5001 182C12.5001 181.72 12.7201 181.5 13.0001 181.5L14.5001 181.5L14.5001 179.473C14.5001 179.305 14.5297 179.15 14.589 179.007C14.6483 178.863 14.7372 178.733 14.8557 178.614C14.8643 178.605 14.873 178.597 14.8817 178.589ZM15.5001 182.001L15.5001 183.201C15.5001 183.582 15.5511 183.949 15.6531 184.301C15.7552 184.652 15.9082 184.989 16.1122 185.311L16.8375 186.456C16.8983 186.552 16.9287 186.657 16.9287 186.77L16.9287 187.25C17.9525 187.644 18.9763 187.841 20.0001 187.841C21.0239 187.841 22.0477 187.644 23.0715 187.25L23.0715 186.77C23.0715 186.657 23.1019 186.552 23.1627 186.456L23.888 185.311C24.092 184.989 24.245 184.652 24.3471 184.301C24.4491 183.949 24.5001 183.582 24.5001 183.201L24.5001 179.473C24.5001 179.33 24.4287 179.258 24.2858 179.258L24.028 179.258C23.8959 179.258 23.7736 179.235 23.6608 179.188C23.5481 179.142 23.4451 179.072 23.3517 178.978C23.2583 178.885 23.1882 178.782 23.1416 178.669C23.0949 178.556 23.0715 178.434 23.0715 178.302C23.0715 177.915 23.0031 177.556 22.8664 177.226C22.7296 176.896 22.5244 176.594 22.2509 176.321C21.9773 176.047 21.6754 175.842 21.3452 175.705C21.015 175.568 20.6565 175.5 20.2696 175.5L19.7305 175.5C18.9568 175.5 18.2964 175.774 17.7493 176.321C17.4758 176.594 17.2706 176.896 17.1338 177.226C16.9971 177.556 16.9287 177.915 16.9287 178.302C16.9287 178.566 16.8353 178.791 16.6485 178.978C16.4618 179.165 16.2363 179.258 15.9722 179.258L15.7144 179.258C15.6552 179.258 15.6047 179.279 15.5629 179.321C15.521 179.363 15.5001 179.413 15.5001 179.473L15.5001 181.999L15.5001 182L15.5001 182.001ZM20.0001 179.5C20.2801 179.5 20.5001 179.72 20.5001 180L20.5001 183C20.5001 183.28 20.2801 183.5 20.0001 183.5C19.7201 183.5 19.5001 183.28 19.5001 183L19.5001 180C19.5001 179.72 19.7201 179.5 20.0001 179.5Z" fill="rgb(255,255,255)" fill-rule="evenodd" />
			</g>
		</g>
		<g id="组合 91332440">
			<rect id="悬浮" width="28.000000" height="28.000000" x="6.000000" y="208.000000" rx="8.000000" fill="rgb(255,255,255)" fill-opacity="0" />
			<g id="icon-插件市场" clip-path="url(#clipPath_6)" customFrame="url(#clipPath_6)">
				<rect id="icon-插件市场" width="16.000000" height="16.000000" x="12.000000" y="214.000000" />
				<path id="路径" d="M13.1997 218.654C13.1997 218.065 13.6773 217.587 14.2664 217.587L16.3352 217.587L16.3352 216.89C16.3352 215.736 17.2711 214.8 18.4255 214.8C19.58 214.8 20.5158 215.736 20.5158 216.89L20.5158 217.587L23.7459 217.587C24.335 217.587 24.8126 218.065 24.8126 218.654L24.8126 222.232L25.5094 222.232C26.6638 222.232 27.5997 223.168 27.5997 224.323C27.5997 225.477 26.6638 226.413 25.5094 226.413L24.8126 226.413L24.8126 228.133C24.8126 228.722 24.335 229.2 23.7459 229.2L14.2664 229.2C13.6773 229.2 13.1997 228.722 13.1997 228.133L13.1997 226.413L13.8965 226.413C15.0509 226.413 15.9868 225.477 15.9868 224.323C15.9868 223.168 15.0509 222.232 13.8965 222.232L13.1997 222.232L13.1997 218.654Z" fill-rule="evenodd" stroke="rgb(255,255,255)" stroke-width="1" />
				<path id="矢量 5920" d="M19.1001 220.8L22.1001 220.8" stroke="rgb(255,255,255)" stroke-linecap="round" stroke-width="1" />
			</g>
		</g>
		<g id="计数徽章" filter="url(#filter_2)" customFrame="url(#clipPath_7)">
			<rect id="计数徽章" width="16.000000" height="16.000000" x="18.000000" y="142.000000" rx="8.000000" fill="rgb(152,107,239)" />
			<path id="" d="M27.2063 149.307C27.7336 149.475 28.1272 149.747 28.3869 150.124C28.6467 150.501 28.7766 150.965 28.7766 151.516C28.7766 152.061 28.6487 152.531 28.3928 152.928C28.1369 153.322 27.7971 153.622 27.3733 153.827C26.9494 154.03 26.4856 154.132 25.9817 154.132C25.341 154.132 24.7502 153.968 24.2092 153.64C23.6701 153.312 23.3088 152.832 23.1252 152.201L23.9895 151.709C24.1418 152.188 24.4035 152.549 24.7746 152.793C25.1477 153.037 25.55 153.159 25.9817 153.159C26.4543 153.159 26.8479 153.014 27.1623 152.723C27.4787 152.43 27.6369 152.023 27.6369 151.504C27.6369 150.432 26.9055 149.896 25.4426 149.896L25.0705 149.896L25.0823 148.935L25.5012 148.935C26.093 148.935 26.5432 148.791 26.8518 148.504C27.1604 148.217 27.3147 147.849 27.3147 147.399C27.3147 146.976 27.1819 146.644 26.9162 146.403C26.6526 146.163 26.3127 146.043 25.8967 146.043C25.4651 146.043 25.0989 146.172 24.7981 146.43C24.4993 146.686 24.2698 147.053 24.1096 147.531L23.2453 147.039C23.4387 146.393 23.7766 145.903 24.259 145.571C24.7434 145.239 25.3098 145.073 25.9582 145.073C26.7102 145.073 27.3137 145.285 27.7688 145.709C28.2258 146.133 28.4543 146.688 28.4543 147.376C28.4543 147.815 28.3518 148.203 28.1467 148.539C27.9436 148.875 27.6301 149.131 27.2063 149.307Z" fill="rgb(255,255,255)" fill-rule="nonzero" />
		</g>
		<g id="计数徽章" filter="url(#filter_3)" customFrame="url(#clipPath_8)">
			<rect id="计数徽章" width="16.000000" height="16.000000" x="18.000000" y="26.000000" rx="8.000000" fill="rgb(152,107,239)" />
			<path id="" d="M27.2063 33.3066C27.7336 33.4746 28.1272 33.7471 28.3869 34.124C28.6467 34.501 28.7766 34.9648 28.7766 35.5156C28.7766 36.0605 28.6487 36.5312 28.3928 36.9277C28.1369 37.3223 27.7971 37.6221 27.3733 37.8271C26.9494 38.0303 26.4856 38.1318 25.9817 38.1318C25.341 38.1318 24.7502 37.9678 24.2092 37.6396C23.6701 37.3115 23.3088 36.832 23.1252 36.2012L23.9895 35.709C24.1418 36.1875 24.4035 36.5488 24.7746 36.793C25.1477 37.0371 25.55 37.1592 25.9817 37.1592C26.4543 37.1592 26.8479 37.0137 27.1623 36.7227C27.4787 36.4297 27.6369 36.0234 27.6369 35.5039C27.6369 34.4316 26.9055 33.8955 25.4426 33.8955L25.0705 33.8955L25.0823 32.9346L25.5012 32.9346C26.093 32.9346 26.5432 32.791 26.8518 32.5039C27.1604 32.2168 27.3147 31.8486 27.3147 31.3994C27.3147 30.9756 27.1819 30.6436 26.9162 30.4033C26.6526 30.1631 26.3127 30.043 25.8967 30.043C25.4651 30.043 25.0989 30.1719 24.7981 30.4297C24.4993 30.6855 24.2698 31.0527 24.1096 31.5312L23.2453 31.0391C23.4387 30.3926 23.7766 29.9033 24.259 29.5713C24.7434 29.2393 25.3098 29.0732 25.9582 29.0732C26.7102 29.0732 27.3137 29.2852 27.7688 29.709C28.2258 30.1328 28.4543 30.6885 28.4543 31.376C28.4543 31.8154 28.3518 32.2031 28.1467 32.5391C27.9436 32.875 27.6301 33.1309 27.2063 33.3066Z" fill="rgb(255,255,255)" fill-rule="nonzero" />
		</g>
	</g>
</svg>
