<svg viewBox="0 0 1920 32" xmlns="http://www.w3.org/2000/svg" xmlns:xlink="http://www.w3.org/1999/xlink" width="1920.000000" height="32.000000" fill="none">
	<defs>
		<clipPath id="clipPath_9">
			<rect width="140.000000" height="20.000000" x="20.000000" y="6.000000" fill="rgb(255,255,255)" />
		</clipPath>
		<clipPath id="clipPath_10">
			<rect width="16.000000" height="16.000000" x="20.000000" y="8.000000" fill="rgb(255,255,255)" />
		</clipPath>
		<clipPath id="clipPath_11">
			<rect width="27.000000" height="20.000000" x="48.000000" y="6.000000" fill="rgb(255,255,255)" />
		</clipPath>
		<clipPath id="clipPath_12">
			<rect width="27.000000" height="20.000000" x="87.000000" y="6.000000" fill="rgb(255,255,255)" />
		</clipPath>
		<clipPath id="clipPath_13">
			<rect width="34.000000" height="20.000000" x="126.000000" y="6.000000" fill="rgb(255,255,255)" />
		</clipPath>
		<clipPath id="clipPath_14">
			<rect width="551.000000" height="20.000000" x="1357.000000" y="6.000000" fill="rgb(255,255,255)" />
		</clipPath>
		<clipPath id="clipPath_15">
			<rect width="16.000000" height="16.000000" x="1892.000000" y="8.000000" fill="rgb(255,255,255)" />
		</clipPath>
		<linearGradient id="paint_linear_0" x1="0" x2="1920" y1="0" y2="0.0384291336" gradientUnits="userSpaceOnUse">
			<stop stop-color="rgb(182,43,247)" offset="2.91442848e-05" stop-opacity="1" />
			<stop stop-color="rgb(77,150,254)" offset="0.2585814" stop-opacity="1" />
			<stop stop-color="rgb(111,60,216)" offset="0.671813428" stop-opacity="0.734411895" />
			<stop stop-color="rgb(111,60,216)" offset="1" stop-opacity="1" />
		</linearGradient>
	</defs>
	<rect id="路径" width="1920.000000" height="32.000000" x="0.000000" y="0.000000" fill="rgb(22,24,26)" fill-opacity="0" />
	<path d="M0 0L1920 0L1920 32L0 32L0 0ZM0 1L1920 1L1920 32L0 32L0 1ZM0 0Z" fill="rgb(50,51,56)" fill-opacity="0" fill-rule="evenodd" />
	<g id="容器 91332444" customFrame="url(#clipPath_9)">
		<rect id="容器 91332444" width="140.000000" height="20.000000" x="20.000000" y="6.000000" />
		<g id="Group" clip-path="url(#clipPath_10)" customFrame="url(#clipPath_10)">
			<rect id="Group" width="16.000000" height="16.000000" x="20.000000" y="8.000000" />
			<path id="矢量 1918" d="M24 9L28 13.0003L24 17" stroke="rgb(255,255,255)" stroke-linecap="round" stroke-linejoin="round" stroke-width="1" />
			<path id="矢量 1919" d="M0 0L4 4.00033L0 8" stroke="rgb(255,255,255)" stroke-linecap="round" stroke-linejoin="round" stroke-width="1" transform="matrix(-1,0,0,1,32,15)" />
		</g>
		<g id="容器 91332444" customFrame="url(#clipPath_11)">
			<rect id="容器 91332444" width="27.000000" height="20.000000" x="48.000000" y="6.000000" />
			<g id="编组 49">
				<circle id="椭圆形" cx="56" cy="16" r="7.375" stroke="rgb(232,143,125)" stroke-width="1.25" />
				<path id="形状结合" d="M5.50268 0.75L5.50268 4.00317L8.75439 4.00317C9.17439 4.00317 9.50439 4.33317 9.50439 4.75317C9.50439 5.17317 9.17439 5.50317 8.75439 5.50317L5.50268 5.50317L5.50268 8.74951C5.50268 9.16951 5.17268 9.49951 4.75268 9.49951C4.33268 9.49951 4.00268 9.16951 4.00268 8.74951L4.00268 5.50317L0.75 5.50317C0.33 5.50317 0 5.17317 0 4.75317C0 4.33317 0.33 4.00317 0.75 4.00317L4.00268 4.00317L4.00268 0.75C4.00268 0.33 4.33268 0 4.75268 0C5.17268 0 5.50268 0.33 5.50268 0.75Z" fill="rgb(22,24,26)" fill-rule="evenodd" transform="matrix(0.707107,0.707107,-0.707107,0.707107,56.0024,9.27344)" />
				<path id="形状结合" d="M5.50268 0.75L5.50268 4.00317L8.75439 4.00317C9.17439 4.00317 9.50439 4.33317 9.50439 4.75317C9.50439 5.17317 9.17439 5.50317 8.75439 5.50317L5.50268 5.50317L5.50268 8.74951C5.50268 9.16951 5.17268 9.49951 4.75268 9.49951C4.33268 9.49951 4.00268 9.16951 4.00268 8.74951L4.00268 5.50317L0.75 5.50317C0.33 5.50317 0 5.17317 0 4.75317C0 4.33317 0.33 4.00317 0.75 4.00317L4.00268 4.00317L4.00268 0.75C4.00268 0.33 4.33268 0 4.75268 0C5.17268 0 5.50268 0.33 5.50268 0.75Z" fill="rgb(232,143,125)" fill-rule="evenodd" transform="matrix(0.707107,0.707107,-0.707107,0.707107,56.0024,9.27344)" />
			</g>
			<path id="" d="M74.3554 15.6084C74.3554 17.0967 74.1093 18.2227 73.6171 18.9863C73.1249 19.75 72.4189 20.1318 71.4989 20.1318C70.5868 20.1318 69.8847 19.748 69.3925 18.9805C68.9023 18.2129 68.6572 17.0889 68.6572 15.6084C68.6572 14.1201 68.9023 12.9902 69.3925 12.2188C69.8847 11.4453 70.5868 11.0586 71.4989 11.0586C72.4189 11.0586 73.1249 11.4434 73.6171 12.2129C74.1093 12.9805 74.3554 14.1123 74.3554 15.6084ZM69.7968 15.6084C69.7968 16.7998 69.9345 17.6875 70.2099 18.2715C70.4853 18.8555 70.915 19.1475 71.4989 19.1475C72.0829 19.1475 72.5146 18.8574 72.7939 18.2773C73.0751 17.6973 73.2157 16.8076 73.2157 15.6084C73.2157 14.3994 73.0751 13.501 72.7939 12.9131C72.5146 12.3252 72.0829 12.0312 71.4989 12.0312C70.915 12.0312 70.4853 12.3252 70.2099 12.9131C69.9345 13.501 69.7968 14.3994 69.7968 15.6084Z" fill="rgb(230,230,230)" fill-rule="nonzero" />
		</g>
		<g id="容器 91332445" customFrame="url(#clipPath_12)">
			<rect id="容器 91332445" width="27.000000" height="20.000000" x="87.000000" y="6.000000" />
			<g id="icon-01备份">
				<circle id="椭圆形" cx="95" cy="16" r="8" fill="rgb(246,111,106)" fill-opacity="0" />
				<circle id="椭圆形" cx="95" cy="16" r="7.5" stroke="rgb(255,255,255)" stroke-opacity="0" stroke-width="1" />
				<path id="三角形" d="M102.871 21.9102L95.9624 9.07254C95.8606 8.88329 95.7042 8.72833 95.5133 8.6274C94.9817 8.34643 94.3209 8.54573 94.0373 9.07254L87.1283 21.9102C87.0441 22.0668 87 22.2415 87 22.4189C87 23.016 87.4884 23.5 88.0909 23.5L101.909 23.5C102.088 23.5 102.264 23.4563 102.422 23.3728C102.954 23.0918 103.155 22.437 102.871 21.9102ZM101.635 22.25L94.9999 9.92165L88.365 22.25L101.635 22.25Z" fill="rgb(255,215,143)" fill-rule="evenodd" />
				<g id="编组">
					<path id="路径 30" d="M0 0L4 0" stroke="rgb(255,215,143)" stroke-linecap="round" stroke-width="1.5" transform="matrix(0,1,-1,0,95,13.25)" />
					<circle id="椭圆形" cx="95" cy="20.25" r="1" fill="rgb(255,215,143)" />
					<circle id="椭圆形" cx="95" cy="20.25" r="0.5" stroke="rgb(151,151,151)" stroke-opacity="0" stroke-width="1" />
				</g>
			</g>
			<path id="" d="M108.189 13.7949L108.189 12.6934L110.744 11.2051L111.559 11.2051L111.559 20L110.48 20L110.48 12.4883L108.189 13.7949Z" fill="rgb(230,230,230)" fill-rule="nonzero" />
		</g>
		<g id="容器 91332446" customFrame="url(#clipPath_13)">
			<rect id="容器 91332446" width="34.000000" height="20.000000" x="126.000000" y="6.000000" />
			<g id="icon-01">
				<circle id="Mask" cx="134" cy="16" r="8" fill="rgb(94,124,224)" fill-opacity="0" />
				<circle id="Mask" cx="134" cy="16" r="7.375" stroke="rgb(116,173,247)" stroke-width="1.25" />
				<g id="编组">
					<path id="路径 30" d="M0 0L5 0" stroke="rgb(116,173,247)" stroke-linecap="round" stroke-width="1.5" transform="matrix(0,-1,1,0,134,20)" />
					<circle id="椭圆形" cx="1" cy="1" r="1" fill="rgb(116,173,247)" transform="matrix(-1,0,0,-1,135,13)" />
					<circle id="椭圆形" cx="1" cy="1" r="0.5" stroke="rgb(151,151,151)" stroke-opacity="0" stroke-width="1" transform="matrix(-1,0,0,-1,135,13)" />
				</g>
			</g>
			<path id="" d="M147.189 13.7949L147.189 12.6934L149.744 11.2051L150.559 11.2051L150.559 20L149.48 20L149.48 12.4883L147.189 13.7949ZM155.072 19.0508L159.045 19.0508L159.045 20L153.441 20L153.441 19.3174L156.285 16.1475C156.82 15.5557 157.188 15.0898 157.387 14.75C157.588 14.4102 157.689 14.04 157.689 13.6396C157.689 13.1279 157.548 12.7324 157.267 12.4531C156.987 12.1719 156.636 12.0312 156.212 12.0312C155.78 12.0312 155.401 12.1777 155.072 12.4707C154.744 12.7617 154.508 13.1475 154.363 13.6279L153.499 13.1357C153.675 12.4795 154.023 11.9697 154.542 11.6064C155.064 11.2412 155.645 11.0586 156.285 11.0586C156.748 11.0586 157.171 11.1572 157.554 11.3545C157.939 11.5498 158.245 11.8379 158.474 12.2188C158.702 12.5977 158.817 13.0557 158.817 13.5928C158.817 14.1123 158.689 14.6045 158.433 15.0693C158.177 15.5322 157.729 16.1162 157.088 16.8213L155.072 19.0508Z" fill="rgb(230,230,230)" fill-rule="nonzero" />
		</g>
	</g>
	<g id="logo-二级" opacity="0.469999999">
		<rect id="矩形" width="42.000000" height="16.000000" x="1303.000000" y="8.000000" />
		<g id="logo">
			<rect id="矩形" width="0.861300" height="0.692407" x="1332.278320" y="16.736816" fill="rgb(0,0,0)" />
			<path id="合并" d="M1319.83 13.2827L1317.37 19.381L1318.31 19.381L1319.03 17.3846L1320.94 17.3846L1321.66 19.3851L1322.61 19.3851L1320.25 13.2881L1319.83 13.2827ZM1343.11 15.2084L1343.11 13.344L1343.87 13.344L1343.87 19.348L1343.11 19.348L1343.11 18.8846C1342.75 19.2167 1342.29 19.3958 1341.81 19.3857C1340.58 19.3857 1339.62 18.3485 1339.62 17.0364C1339.62 15.7243 1340.58 14.6965 1341.81 14.6965C1342.29 14.6895 1342.76 14.8725 1343.11 15.2084ZM1334.63 15.4601C1334.2 15.055 1333.65 14.8212 1333.07 14.8014C1331.98 14.8014 1331.12 15.6096 1330.96 16.7628L1330.95 16.8517L1331.72 16.8517L1331.73 16.7884C1331.87 16.0731 1332.41 15.5935 1333.07 15.5935C1333.73 15.5958 1334.3 16.0546 1334.47 16.7102L1333.71 16.7102L1333.71 17.4835L1335.26 17.4835L1335.28 17.1144C1335.31 16.4912 1335.07 15.8871 1334.63 15.4601ZM1337.7 14.8658L1337.23 14.8658C1336.39 14.868 1335.72 15.5612 1335.71 16.4204L1335.69 19.384L1336.44 19.384L1336.44 16.4783C1336.44 16.2598 1336.53 16.0501 1336.68 15.8955C1336.82 15.7408 1337.03 15.6539 1337.24 15.6539L1337.63 15.6606C1338.08 15.6694 1338.44 16.0476 1338.44 16.512L1338.44 19.3813L1339.19 19.3813L1339.19 16.4029C1339.19 15.9946 1339.04 15.6033 1338.76 15.315C1338.48 15.0267 1338.1 14.8651 1337.7 14.8658ZM1324.34 16.5782L1324.6 16.6362C1325.39 16.8153 1326.12 17.1063 1326.12 18.0102C1326.12 18.8063 1325.38 19.3842 1324.36 19.3842C1323.34 19.3842 1322.62 18.7727 1322.62 17.9024L1322.62 17.7516L1323.5 17.7516L1323.5 17.9024C1323.5 18.32 1323.85 18.6231 1324.35 18.6231C1324.86 18.6231 1325.21 18.3699 1325.21 18.0075C1325.21 17.7906 1325.15 17.5549 1324.37 17.3865L1324.13 17.334C1323.25 17.1346 1322.74 16.7251 1322.74 16.0838C1322.74 15.382 1323.47 14.8715 1324.35 14.8715C1325.28 14.8715 1325.91 15.3443 1325.91 16.1364L1325.91 16.2873L1325.02 16.2873L1325.02 16.1364C1325.02 15.8185 1324.71 15.6353 1324.35 15.6353C1323.98 15.6353 1323.63 15.8239 1323.63 16.0838C1323.63 16.3088 1323.82 16.4637 1324.34 16.5782ZM1320.65 16.5764L1319.33 16.5764L1319.96 14.9787C1319.97 14.9784 1319.97 14.9772 1319.98 14.9759C1320.01 14.9716 1320.04 14.9654 1320.05 14.9787L1320.65 16.5764ZM1329.72 16.2498C1329.49 15.9493 1329.14 15.7634 1328.77 15.7379L1328.77 14.9875C1329.53 15.0141 1330.2 15.4672 1330.54 16.1662L1330.59 16.2808L1329.72 16.2498ZM1328.32 15.7643C1327.76 15.8872 1327.33 16.3664 1327.26 16.9565L1326.51 16.9565C1326.57 15.9369 1327.34 15.112 1328.32 15.0032L1328.32 15.7643ZM1343.08 17.0364C1343.08 16.2874 1342.68 15.4791 1341.81 15.4791C1341 15.4791 1340.37 16.1635 1340.37 17.0364C1340.37 17.9093 1341.01 18.5936 1341.81 18.5936C1342.68 18.5936 1343.08 17.7854 1343.08 17.0364ZM1334.18 18.2835C1333.95 18.4923 1333.57 18.5987 1333.08 18.5987C1332.41 18.5987 1331.87 18.1137 1331.73 17.3863L1331.72 17.323L1330.95 17.323L1330.96 17.4092C1331 17.9312 1331.22 18.4201 1331.59 18.7846C1331.99 19.1695 1332.52 19.3809 1333.08 19.376C1333.75 19.376 1334.29 19.2062 1334.69 18.8708L1334.9 18.693L1334.36 18.1272L1334.18 18.2835ZM1329.79 18.0035C1329.46 18.4727 1328.87 18.7266 1328.32 18.5939C1327.78 18.4613 1327.36 18.0029 1327.27 17.431L1326.51 17.431C1326.62 18.5734 1327.48 19.3803 1328.63 19.3803C1329.54 19.3803 1330.27 18.9061 1330.59 18.114L1330.63 18.0035L1329.79 18.0035Z" fill="rgb(255,255,255)" fill-rule="evenodd" />
			<path id="合并" d="M1314.71 13.3214C1312.82 14.034 1310.6 15.5953 1308.42 18.1265L1305.12 21.9334C1304.9 22.1966 1304.55 22.3146 1304.21 22.2428C1303.88 22.1711 1303.61 21.9205 1303.5 21.5854C1303.39 21.2504 1303.47 20.8819 1303.7 20.6186L1311.98 10.9855L1313.64 9.1346C1313.81 8.95039 1314.07 8.88608 1314.3 8.97109C1314.52 9.0561 1314.68 9.27407 1314.7 9.52526L1314.71 13.3214ZM1313.43 20.8347L1310.6 17.1504C1311.75 16.2195 1313.09 15.5756 1314.72 15.7521L1314.65 20.2163C1314.66 20.5184 1314.5 20.7993 1314.23 20.9329C1313.97 21.0666 1313.66 21.0281 1313.43 20.8347Z" fill="rgb(255,255,255)" fill-rule="evenodd" />
		</g>
	</g>
	<g id="容器 91332469" customFrame="url(#clipPath_14)">
		<rect id="容器 91332469" width="551.000000" height="20.000000" x="1357.000000" y="6.000000" />
		<path id="" d="M1359.27 14.9609L1363.99 14.9609L1363.99 11.2168L1365.06 11.2168L1365.06 20L1363.99 20L1363.99 15.9189L1359.27 15.9189L1359.27 20L1358.2 20L1358.2 11.2168L1359.27 11.2168L1359.27 14.9609ZM1371.21 13.7715L1372.85 18.4531L1374.37 13.7715L1375.33 13.7715L1373.12 20L1372.45 20L1370.8 15.4414L1369.21 20L1368.51 20L1366.22 13.7715L1367.29 13.7715L1368.92 18.4531L1370.42 13.7715L1371.21 13.7715ZM1380.59 10.8682L1381.61 10.8682L1381.61 20L1380.71 20C1380.69 19.584 1380.66 19.2324 1380.63 18.9453C1380.41 19.3438 1380.11 19.6416 1379.74 19.8389C1379.37 20.0342 1378.97 20.1318 1378.56 20.1318C1378.08 20.1318 1377.63 20.0039 1377.21 19.748C1376.79 19.4922 1376.45 19.1182 1376.2 18.626C1375.94 18.1338 1375.81 17.5518 1375.81 16.8799C1375.81 16.2158 1375.94 15.6377 1376.2 15.1455C1376.45 14.6533 1376.79 14.2773 1377.21 14.0176C1377.63 13.7578 1378.08 13.6279 1378.56 13.6279C1378.96 13.6279 1379.34 13.7197 1379.7 13.9033C1380.06 14.0869 1380.35 14.3633 1380.59 14.7324L1380.59 10.8682ZM1378.68 19.1709C1379.2 19.1709 1379.65 18.9873 1380.02 18.6201C1380.4 18.2529 1380.59 17.6729 1380.59 16.8799C1380.59 16.0967 1380.4 15.5215 1380.02 15.1543C1379.65 14.7852 1379.2 14.6006 1378.68 14.6006C1378.13 14.6006 1377.7 14.8008 1377.37 15.2012C1377.04 15.5996 1376.88 16.1592 1376.88 16.8799C1376.88 17.6084 1377.04 18.1729 1377.37 18.5732C1377.7 18.9717 1378.13 19.1709 1378.68 19.1709ZM1386.05 13.6279C1386.58 13.6279 1387.05 13.7539 1387.45 14.0059C1387.86 14.2578 1388.17 14.5996 1388.38 15.0312C1388.6 15.4629 1388.71 15.9434 1388.71 16.4727C1388.71 16.6953 1388.69 16.8994 1388.66 17.085L1384.17 17.085C1384.21 17.7959 1384.42 18.3262 1384.79 18.6758C1385.15 19.0234 1385.62 19.1973 1386.18 19.1973C1386.87 19.1973 1387.38 18.917 1387.69 18.3564L1388.47 18.7988C1388.31 19.2227 1388.01 19.5508 1387.57 19.7832C1387.14 20.0156 1386.65 20.1318 1386.12 20.1318C1385.56 20.1318 1385.05 20.0039 1384.59 19.748C1384.13 19.4922 1383.76 19.1182 1383.5 18.626C1383.23 18.1338 1383.1 17.5439 1383.1 16.8564C1383.1 16.1924 1383.23 15.6162 1383.5 15.1279C1383.76 14.6396 1384.12 14.2676 1384.57 14.0117C1385.02 13.7559 1385.51 13.6279 1386.05 13.6279ZM1386.01 14.5654C1385.56 14.5654 1385.17 14.709 1384.84 14.9961C1384.51 15.2832 1384.3 15.7031 1384.21 16.2559L1387.61 16.2559C1387.58 15.7207 1387.42 15.3057 1387.14 15.0107C1386.85 14.7139 1386.47 14.5654 1386.01 14.5654ZM1392.45 11.6973C1392.12 11.6973 1391.86 11.8057 1391.69 12.0225C1391.52 12.2373 1391.43 12.6162 1391.43 13.1592L1391.43 13.7598L1393.05 13.7598L1393.05 14.6357L1391.43 14.6357L1391.43 20L1390.42 20L1390.42 14.6357L1389.33 14.6357L1389.33 13.7598L1390.42 13.7598L1390.42 13.1357C1390.42 12.3037 1390.6 11.6963 1390.98 11.3135C1391.35 10.9287 1391.83 10.7363 1392.4 10.7363C1392.66 10.7363 1392.9 10.7705 1393.11 10.8389C1393.32 10.9072 1393.49 10.9932 1393.62 11.0967L1393.21 11.9111C1392.99 11.7686 1392.73 11.6973 1392.45 11.6973ZM1396.43 13.6279C1396.96 13.6279 1397.43 13.7539 1397.83 14.0059C1398.24 14.2578 1398.55 14.5996 1398.76 15.0312C1398.98 15.4629 1399.09 15.9434 1399.09 16.4727C1399.09 16.6953 1399.07 16.8994 1399.04 17.085L1394.55 17.085C1394.59 17.7959 1394.8 18.3262 1395.17 18.6758C1395.53 19.0234 1396 19.1973 1396.56 19.1973C1397.25 19.1973 1397.76 18.917 1398.07 18.3564L1398.85 18.7988C1398.69 19.2227 1398.39 19.5508 1397.95 19.7832C1397.52 20.0156 1397.03 20.1318 1396.5 20.1318C1395.94 20.1318 1395.43 20.0039 1394.97 19.748C1394.51 19.4922 1394.14 19.1182 1393.88 18.626C1393.61 18.1338 1393.48 17.5439 1393.48 16.8564C1393.48 16.1924 1393.61 15.6162 1393.88 15.1279C1394.14 14.6396 1394.5 14.2676 1394.95 14.0117C1395.4 13.7559 1395.89 13.6279 1396.43 13.6279ZM1396.39 14.5654C1395.94 14.5654 1395.55 14.709 1395.22 14.9961C1394.89 15.2832 1394.68 15.7031 1394.59 16.2559L1397.99 16.2559C1397.96 15.7207 1397.8 15.3057 1397.52 15.0107C1397.23 14.7139 1396.85 14.5654 1396.39 14.5654ZM1403.01 19.1709C1403.62 19.1709 1404.1 18.8994 1404.44 18.3564L1405.25 18.8252C1405.02 19.2646 1404.72 19.5928 1404.34 19.8096C1403.96 20.0244 1403.53 20.1318 1403.04 20.1318C1402.48 20.1318 1401.97 19.9961 1401.51 19.7246C1401.06 19.4531 1400.7 19.0713 1400.43 18.5791C1400.17 18.0869 1400.04 17.5205 1400.04 16.8799C1400.04 16.2393 1400.17 15.6738 1400.43 15.1836C1400.7 14.6914 1401.06 14.3096 1401.51 14.0381C1401.97 13.7646 1402.48 13.6279 1403.04 13.6279C1403.53 13.6279 1403.96 13.7363 1404.34 13.9531C1404.72 14.168 1405.02 14.4951 1405.25 14.9346L1404.44 15.4033C1404.1 14.8604 1403.62 14.5889 1403.01 14.5889C1402.45 14.5889 1402 14.793 1401.64 15.2012C1401.29 15.6074 1401.12 16.167 1401.12 16.8799C1401.12 17.5928 1401.29 18.1533 1401.64 18.5615C1402 18.9678 1402.45 19.1709 1403.01 19.1709ZM1409.95 19.7949C1409.62 20.0195 1409.2 20.1318 1408.69 20.1318C1407.43 20.1318 1406.81 19.416 1406.81 17.9844L1406.81 14.6475L1405.77 14.6475L1405.77 13.7598L1406.81 13.7598L1406.81 12.0195L1407.82 12.0195L1407.82 13.7598L1409.64 13.7598L1409.64 14.6475L1407.82 14.6475L1407.82 17.8643C1407.82 18.7354 1408.15 19.1709 1408.81 19.1709C1409.1 19.1709 1409.37 19.0996 1409.61 18.957L1409.95 19.7949ZM1411.1 11.2168L1416.49 11.2168L1416.49 12.1631L1412.17 12.1631L1412.17 15.1279L1416.03 15.1279L1416.03 16.0771L1412.17 16.0771L1412.17 20L1411.1 20L1411.1 11.2168ZM1418.28 12.6553C1418.09 12.6553 1417.93 12.5859 1417.8 12.4473C1417.67 12.3066 1417.61 12.1445 1417.61 11.9609C1417.61 11.7754 1417.67 11.6133 1417.8 11.4746C1417.93 11.334 1418.09 11.2637 1418.28 11.2637C1418.47 11.2637 1418.63 11.332 1418.76 11.4688C1418.9 11.6035 1418.96 11.7676 1418.96 11.9609C1418.96 12.1445 1418.89 12.3066 1418.76 12.4473C1418.62 12.5859 1418.46 12.6553 1418.28 12.6553ZM1418.78 20L1417.76 20L1417.76 13.7715L1418.78 13.7715L1418.78 20ZM1423.66 13.6279C1424.33 13.6279 1424.86 13.8486 1425.26 14.29C1425.66 14.7295 1425.86 15.3525 1425.86 16.1592L1425.86 20L1424.84 20L1424.84 16.4492C1424.84 15.8555 1424.72 15.3994 1424.49 15.0811C1424.25 14.7607 1423.9 14.6006 1423.44 14.6006C1423.13 14.6006 1422.85 14.6709 1422.58 14.8115C1422.31 14.9502 1422.1 15.1582 1421.93 15.4355C1421.76 15.7109 1421.68 16.0527 1421.68 16.4609L1421.68 20L1420.65 20L1420.65 13.7715L1421.56 13.7715C1421.57 14.1719 1421.59 14.5156 1421.63 14.8027C1421.83 14.4199 1422.12 14.1289 1422.47 13.9297C1422.83 13.7285 1423.23 13.6279 1423.66 13.6279ZM1432.03 10.8682L1433.05 10.8682L1433.05 20L1432.15 20C1432.13 19.584 1432.11 19.2324 1432.08 18.9453C1431.85 19.3438 1431.55 19.6416 1431.18 19.8389C1430.81 20.0342 1430.42 20.1318 1430 20.1318C1429.52 20.1318 1429.07 20.0039 1428.65 19.748C1428.23 19.4922 1427.9 19.1182 1427.64 18.626C1427.38 18.1338 1427.26 17.5518 1427.26 16.8799C1427.26 16.2158 1427.38 15.6377 1427.64 15.1455C1427.9 14.6533 1428.23 14.2773 1428.65 14.0176C1429.07 13.7578 1429.52 13.6279 1430 13.6279C1430.4 13.6279 1430.78 13.7197 1431.14 13.9033C1431.5 14.0869 1431.8 14.3633 1432.03 14.7324L1432.03 10.8682ZM1430.12 19.1709C1430.64 19.1709 1431.09 18.9873 1431.47 18.6201C1431.84 18.2529 1432.03 17.6729 1432.03 16.8799C1432.03 16.0967 1431.84 15.5215 1431.47 15.1543C1431.09 14.7852 1430.64 14.6006 1430.12 14.6006C1429.58 14.6006 1429.14 14.8008 1428.81 15.2012C1428.49 15.5996 1428.32 16.1592 1428.32 16.8799C1428.32 17.6084 1428.49 18.1729 1428.81 18.5732C1429.14 18.9717 1429.58 19.1709 1430.12 19.1709ZM1434.8 15.7754C1434.8 14.6484 1434.99 13.6074 1435.37 12.6523C1435.74 11.6953 1436.26 10.8848 1436.92 10.2207L1437.89 10.2207C1437.24 11.0039 1436.74 11.8496 1436.39 12.7578C1436.04 13.666 1435.87 14.6719 1435.87 15.7754C1435.87 16.8887 1436.04 17.9014 1436.39 18.8135C1436.74 19.7236 1437.24 20.5635 1437.89 21.333L1436.92 21.333C1436.26 20.6689 1435.74 19.8613 1435.37 18.9102C1434.99 17.957 1434.8 16.9121 1434.8 15.7754ZM1446.55 11.2168L1447.43 11.2168L1447.43 20L1446.38 20L1446.38 13.3027L1443.61 17.7324L1442.97 17.7324L1440.18 13.2793L1440.18 20L1439.14 20L1439.14 11.2168L1440.08 11.2168L1443.32 16.4346L1446.55 11.2168ZM1451.8 13.6279C1452.5 13.6279 1453.07 13.8418 1453.52 14.2695C1453.97 14.6973 1454.19 15.3076 1454.19 16.1006L1454.19 20L1453.3 20C1453.27 19.5918 1453.25 19.3281 1453.25 19.209C1453.05 19.5117 1452.8 19.7412 1452.47 19.8975C1452.15 20.0537 1451.78 20.1318 1451.36 20.1318C1450.96 20.1318 1450.59 20.0586 1450.24 19.9121C1449.89 19.7637 1449.61 19.543 1449.4 19.25C1449.2 18.957 1449.09 18.6074 1449.09 18.2012C1449.09 17.584 1449.34 17.0977 1449.84 16.7422C1450.34 16.3867 1450.99 16.209 1451.78 16.209C1452.23 16.209 1452.69 16.2686 1453.18 16.3877L1453.18 16.2793C1453.18 15.6953 1453.06 15.2617 1452.82 14.9785C1452.58 14.6934 1452.23 14.5508 1451.75 14.5508C1451.36 14.5508 1451.04 14.6309 1450.78 14.791C1450.53 14.9512 1450.31 15.1875 1450.14 15.5L1449.36 15.0547C1449.55 14.623 1449.86 14.2773 1450.3 14.0176C1450.74 13.7578 1451.23 13.6279 1451.8 13.6279ZM1453.18 17.2402C1452.67 17.1113 1452.21 17.0469 1451.8 17.0469C1451.27 17.0469 1450.87 17.1475 1450.59 17.3486C1450.3 17.5479 1450.16 17.8281 1450.16 18.1895C1450.16 18.5254 1450.28 18.7871 1450.52 18.9746C1450.76 19.1621 1451.07 19.2559 1451.46 19.2559C1451.93 19.2559 1452.34 19.1182 1452.67 18.8428C1453.01 18.5654 1453.18 18.1836 1453.18 17.6973L1453.18 17.2402ZM1459.33 19.7949C1459 20.0195 1458.58 20.1318 1458.07 20.1318C1456.81 20.1318 1456.19 19.416 1456.19 17.9844L1456.19 14.6475L1455.15 14.6475L1455.15 13.7598L1456.19 13.7598L1456.19 12.0195L1457.2 12.0195L1457.2 13.7598L1459.02 13.7598L1459.02 14.6475L1457.2 14.6475L1457.2 17.8643C1457.2 18.7354 1457.53 19.1709 1458.19 19.1709C1458.48 19.1709 1458.75 19.0996 1458.99 18.957L1459.33 19.7949ZM1467.8 18.2246C1467.8 18.5996 1467.7 18.9316 1467.51 19.2207C1467.31 19.5078 1467.04 19.7314 1466.69 19.8916C1466.33 20.0518 1465.93 20.1318 1465.47 20.1318C1464.87 20.1318 1464.34 19.9961 1463.9 19.7246C1463.46 19.4531 1463.18 19.0811 1463.04 18.6084L1463.82 18.1631C1464.11 18.8604 1464.67 19.209 1465.47 19.209C1465.87 19.209 1466.17 19.1289 1466.4 18.9688C1466.62 18.8086 1466.73 18.5879 1466.73 18.3066C1466.73 18.0918 1466.67 17.917 1466.53 17.7822C1466.4 17.6455 1466.24 17.5391 1466.04 17.4629C1465.85 17.3867 1465.57 17.2969 1465.22 17.1934C1464.8 17.0723 1464.45 16.9561 1464.19 16.8447C1463.93 16.7314 1463.7 16.5654 1463.52 16.3467C1463.34 16.126 1463.24 15.8359 1463.24 15.4766C1463.24 15.0996 1463.34 14.7715 1463.55 14.4922C1463.75 14.2129 1464.03 13.999 1464.37 13.8506C1464.72 13.7021 1465.11 13.6279 1465.52 13.6279C1466.07 13.6279 1466.53 13.748 1466.93 13.9883C1467.32 14.2285 1467.58 14.5566 1467.72 14.9727L1466.94 15.415C1466.81 15.1436 1466.62 14.9346 1466.37 14.7881C1466.11 14.6396 1465.82 14.5654 1465.47 14.5654C1465.12 14.5654 1464.84 14.6357 1464.63 14.7764C1464.42 14.915 1464.31 15.1162 1464.31 15.3799C1464.31 15.5713 1464.37 15.7275 1464.49 15.8486C1464.62 15.9678 1464.77 16.0635 1464.96 16.1357C1465.14 16.208 1465.4 16.292 1465.74 16.3877C1466.18 16.5088 1466.53 16.627 1466.81 16.7422C1467.08 16.8574 1467.31 17.0352 1467.51 17.2754C1467.7 17.5156 1467.8 17.832 1467.8 18.2246ZM1471.68 13.6279C1471.87 13.6279 1472.05 13.6543 1472.21 13.707C1472.38 13.7578 1472.51 13.8232 1472.61 13.9033L1472.24 14.7324C1472.08 14.6367 1471.89 14.5889 1471.67 14.5889C1471.2 14.5889 1470.82 14.7793 1470.53 15.1602C1470.23 15.5391 1470.08 16.0928 1470.08 16.8213L1470.08 20L1469.06 20L1469.06 13.7715L1469.96 13.7715C1469.98 14.1719 1470 14.5117 1470.03 14.791C1470.39 14.0156 1470.93 13.6279 1471.68 13.6279ZM1475.78 19.1709C1476.39 19.1709 1476.87 18.8994 1477.21 18.3564L1478.01 18.8252C1477.79 19.2646 1477.49 19.5928 1477.11 19.8096C1476.73 20.0244 1476.29 20.1318 1475.81 20.1318C1475.25 20.1318 1474.74 19.9961 1474.28 19.7246C1473.83 19.4531 1473.47 19.0713 1473.2 18.5791C1472.94 18.0869 1472.81 17.5205 1472.81 16.8799C1472.81 16.2393 1472.94 15.6738 1473.2 15.1836C1473.47 14.6914 1473.83 14.3096 1474.28 14.0381C1474.74 13.7646 1475.25 13.6279 1475.81 13.6279C1476.29 13.6279 1476.73 13.7363 1477.11 13.9531C1477.49 14.168 1477.79 14.4951 1478.01 14.9346L1477.21 15.4033C1476.87 14.8604 1476.39 14.5889 1475.78 14.5889C1475.22 14.5889 1474.77 14.793 1474.41 15.2012C1474.06 15.6074 1473.89 16.167 1473.89 16.8799C1473.89 17.5928 1474.06 18.1533 1474.41 18.5615C1474.77 18.9678 1475.22 19.1709 1475.78 19.1709ZM1480.1 20L1479.08 20L1479.08 10.8682L1480.1 10.8682L1480.1 20ZM1488.45 13.6279C1489.05 13.6279 1489.53 13.8418 1489.89 14.2695C1490.26 14.6973 1490.44 15.3115 1490.44 16.1123L1490.44 20L1489.44 20L1489.44 16.4492C1489.44 15.8477 1489.33 15.3896 1489.12 15.0752C1488.92 14.7588 1488.61 14.6006 1488.2 14.6006C1487.78 14.6006 1487.43 14.7607 1487.14 15.0811C1486.85 15.3994 1486.7 15.8594 1486.7 16.4609L1486.7 20L1485.69 20L1485.69 16.4492C1485.69 15.8555 1485.59 15.3994 1485.38 15.0811C1485.17 14.7607 1484.87 14.6006 1484.47 14.6006C1484.06 14.6006 1483.7 14.7627 1483.41 15.0869C1483.12 15.4111 1482.97 15.8691 1482.97 16.4609L1482.97 20L1481.95 20L1481.95 13.7715L1482.85 13.7715C1482.86 14.043 1482.88 14.3594 1482.91 14.7207C1483.12 14.3594 1483.38 14.0869 1483.69 13.9033C1484.01 13.7197 1484.36 13.6279 1484.73 13.6279C1485.15 13.6279 1485.52 13.7383 1485.83 13.959C1486.15 14.1777 1486.38 14.5029 1486.52 14.9346C1486.72 14.4951 1486.99 14.168 1487.33 13.9531C1487.67 13.7363 1488.05 13.6279 1488.45 13.6279ZM1492.77 18.7754C1493.01 18.7754 1493.19 18.8662 1493.34 19.0479C1493.48 19.2275 1493.55 19.5049 1493.55 19.8799C1493.55 20.4248 1493.41 20.873 1493.13 21.2246C1492.84 21.5762 1492.47 21.7959 1492.01 21.8838L1492.01 21.3213C1492.55 21.1533 1492.84 20.7646 1492.87 20.1553C1492.85 20.1631 1492.81 20.167 1492.76 20.167C1492.56 20.167 1492.4 20.0996 1492.29 19.9648C1492.17 19.8281 1492.11 19.6641 1492.11 19.4727C1492.11 19.2715 1492.18 19.1055 1492.3 18.9746C1492.42 18.8418 1492.58 18.7754 1492.77 18.7754ZM1502.62 11.2168L1503.49 11.2168L1503.49 20L1502.45 20L1502.45 13.3027L1499.67 17.7324L1499.04 17.7324L1496.24 13.2793L1496.24 20L1495.21 20L1495.21 11.2168L1496.15 11.2168L1499.39 16.4346L1502.62 11.2168ZM1507.86 13.6279C1508.56 13.6279 1509.14 13.8418 1509.58 14.2695C1510.03 14.6973 1510.26 15.3076 1510.26 16.1006L1510.26 20L1509.36 20C1509.33 19.5918 1509.32 19.3281 1509.31 19.209C1509.12 19.5117 1508.86 19.7412 1508.54 19.8975C1508.21 20.0537 1507.84 20.1318 1507.43 20.1318C1507.03 20.1318 1506.65 20.0586 1506.3 19.9121C1505.96 19.7637 1505.68 19.543 1505.47 19.25C1505.26 18.957 1505.16 18.6074 1505.16 18.2012C1505.16 17.584 1505.41 17.0977 1505.91 16.7422C1506.41 16.3867 1507.05 16.209 1507.84 16.209C1508.29 16.209 1508.76 16.2686 1509.24 16.3877L1509.24 16.2793C1509.24 15.6953 1509.12 15.2617 1508.88 14.9785C1508.65 14.6934 1508.29 14.5508 1507.81 14.5508C1507.43 14.5508 1507.11 14.6309 1506.85 14.791C1506.59 14.9512 1506.38 15.1875 1506.2 15.5L1505.42 15.0547C1505.61 14.623 1505.93 14.2773 1506.36 14.0176C1506.8 13.7578 1507.3 13.6279 1507.86 13.6279ZM1509.24 17.2402C1508.74 17.1113 1508.28 17.0469 1507.86 17.0469C1507.34 17.0469 1506.94 17.1475 1506.65 17.3486C1506.37 17.5479 1506.23 17.8281 1506.23 18.1895C1506.23 18.5254 1506.35 18.7871 1506.58 18.9746C1506.82 19.1621 1507.14 19.2559 1507.52 19.2559C1507.99 19.2559 1508.4 19.1182 1508.74 18.8428C1509.07 18.5654 1509.24 18.1836 1509.24 17.6973L1509.24 17.2402ZM1515.39 19.7949C1515.07 20.0195 1514.65 20.1318 1514.13 20.1318C1512.88 20.1318 1512.25 19.416 1512.25 17.9844L1512.25 14.6475L1511.22 14.6475L1511.22 13.7598L1512.25 13.7598L1512.25 12.0195L1513.27 12.0195L1513.27 13.7598L1515.08 13.7598L1515.08 14.6475L1513.27 14.6475L1513.27 17.8643C1513.27 18.7354 1513.6 19.1709 1514.25 19.1709C1514.54 19.1709 1514.81 19.0996 1515.06 18.957L1515.39 19.7949ZM1521.65 12.8721L1523.04 11.9346L1523.48 12.7051L1521.98 13.4492L1523.48 14.1787L1523.04 14.9492L1521.65 14.0117L1521.77 15.6787L1520.88 15.6787L1521 14.0117L1519.61 14.9492L1519.16 14.1787L1520.66 13.4492L1519.16 12.7051L1519.61 11.9346L1521 12.8721L1520.88 11.2051L1521.77 11.2051L1521.65 12.8721ZM1532.48 10.8682L1533.5 10.8682L1533.5 20L1532.6 20C1532.59 19.584 1532.56 19.2324 1532.53 18.9453C1532.31 19.3438 1532.01 19.6416 1531.63 19.8389C1531.26 20.0342 1530.87 20.1318 1530.45 20.1318C1529.97 20.1318 1529.52 20.0039 1529.1 19.748C1528.68 19.4922 1528.35 19.1182 1528.09 18.626C1527.84 18.1338 1527.71 17.5518 1527.71 16.8799C1527.71 16.2158 1527.84 15.6377 1528.09 15.1455C1528.35 14.6533 1528.68 14.2773 1529.1 14.0176C1529.52 13.7578 1529.97 13.6279 1530.45 13.6279C1530.85 13.6279 1531.23 13.7197 1531.59 13.9033C1531.95 14.0869 1532.25 14.3633 1532.48 14.7324L1532.48 10.8682ZM1530.57 19.1709C1531.09 19.1709 1531.54 18.9873 1531.92 18.6201C1532.29 18.2529 1532.48 17.6729 1532.48 16.8799C1532.48 16.0967 1532.29 15.5215 1531.92 15.1543C1531.54 14.7852 1531.09 14.6006 1530.57 14.6006C1530.03 14.6006 1529.59 14.8008 1529.27 15.2012C1528.94 15.5996 1528.77 16.1592 1528.77 16.8799C1528.77 17.6084 1528.94 18.1729 1529.27 18.5732C1529.59 18.9717 1530.03 19.1709 1530.57 19.1709ZM1537.94 13.6279C1538.48 13.6279 1538.95 13.7539 1539.35 14.0059C1539.76 14.2578 1540.06 14.5996 1540.28 15.0312C1540.5 15.4629 1540.6 15.9434 1540.6 16.4727C1540.6 16.6953 1540.59 16.8994 1540.56 17.085L1536.07 17.085C1536.11 17.7959 1536.31 18.3262 1536.68 18.6758C1537.05 19.0234 1537.51 19.1973 1538.07 19.1973C1538.77 19.1973 1539.27 18.917 1539.59 18.3564L1540.37 18.7988C1540.21 19.2227 1539.91 19.5508 1539.47 19.7832C1539.04 20.0156 1538.55 20.1318 1538.01 20.1318C1537.45 20.1318 1536.94 20.0039 1536.48 19.748C1536.02 19.4922 1535.66 19.1182 1535.39 18.626C1535.13 18.1338 1534.99 17.5439 1534.99 16.8564C1534.99 16.1924 1535.13 15.6162 1535.39 15.1279C1535.66 14.6396 1536.02 14.2676 1536.47 14.0117C1536.91 13.7559 1537.41 13.6279 1537.94 13.6279ZM1537.91 14.5654C1537.46 14.5654 1537.07 14.709 1536.73 14.9961C1536.4 15.2832 1536.19 15.7031 1536.1 16.2559L1539.5 16.2559C1539.48 15.7207 1539.32 15.3057 1539.03 15.0107C1538.74 14.7139 1538.37 14.5654 1537.91 14.5654ZM1546.26 18.2246C1546.26 18.5996 1546.16 18.9316 1545.96 19.2207C1545.77 19.5078 1545.49 19.7314 1545.14 19.8916C1544.79 20.0518 1544.39 20.1318 1543.93 20.1318C1543.32 20.1318 1542.8 19.9961 1542.36 19.7246C1541.92 19.4531 1541.63 19.0811 1541.49 18.6084L1542.27 18.1631C1542.57 18.8604 1543.12 19.209 1543.93 19.209C1544.32 19.209 1544.63 19.1289 1544.85 18.9688C1545.08 18.8086 1545.19 18.5879 1545.19 18.3066C1545.19 18.0918 1545.12 17.917 1544.99 17.7822C1544.86 17.6455 1544.7 17.5391 1544.5 17.4629C1544.3 17.3867 1544.03 17.2969 1543.68 17.1934C1543.25 17.0723 1542.91 16.9561 1542.65 16.8447C1542.38 16.7314 1542.16 16.5654 1541.97 16.3467C1541.79 16.126 1541.7 15.8359 1541.7 15.4766C1541.7 15.0996 1541.8 14.7715 1542 14.4922C1542.21 14.2129 1542.48 13.999 1542.83 13.8506C1543.18 13.7021 1543.56 13.6279 1543.98 13.6279C1544.52 13.6279 1544.99 13.748 1545.38 13.9883C1545.77 14.2285 1546.04 14.5566 1546.17 14.9727L1545.39 15.415C1545.27 15.1436 1545.08 14.9346 1544.82 14.7881C1544.57 14.6396 1544.27 14.5654 1543.93 14.5654C1543.58 14.5654 1543.3 14.6357 1543.08 14.7764C1542.87 14.915 1542.77 15.1162 1542.77 15.3799C1542.77 15.5713 1542.83 15.7275 1542.95 15.8486C1543.08 15.9678 1543.23 16.0635 1543.41 16.1357C1543.6 16.208 1543.86 16.292 1544.19 16.3877C1544.63 16.5088 1544.99 16.627 1545.26 16.7422C1545.53 16.8574 1545.77 17.0352 1545.96 17.2754C1546.16 17.5156 1546.26 17.832 1546.26 18.2246ZM1548.54 20L1547.52 20L1547.52 10.8682L1548.54 10.8682L1548.54 20ZM1556.89 13.6279C1557.48 13.6279 1557.96 13.8418 1558.33 14.2695C1558.7 14.6973 1558.88 15.3115 1558.88 16.1123L1558.88 20L1557.87 20L1557.87 16.4492C1557.87 15.8477 1557.77 15.3896 1557.56 15.0752C1557.35 14.7588 1557.05 14.6006 1556.64 14.6006C1556.22 14.6006 1555.87 14.7607 1555.57 15.0811C1555.28 15.3994 1555.14 15.8594 1555.14 16.4609L1555.14 20L1554.13 20L1554.13 16.4492C1554.13 15.8555 1554.02 15.3994 1553.82 15.0811C1553.61 14.7607 1553.31 14.6006 1552.91 14.6006C1552.49 14.6006 1552.14 14.7627 1551.84 15.0869C1551.55 15.4111 1551.41 15.8691 1551.41 16.4609L1551.41 20L1550.38 20L1550.38 13.7715L1551.29 13.7715C1551.3 14.043 1551.31 14.3594 1551.35 14.7207C1551.55 14.3594 1551.82 14.0869 1552.13 13.9033C1552.45 13.7197 1552.79 13.6279 1553.17 13.6279C1553.59 13.6279 1553.95 13.7383 1554.27 13.959C1554.58 14.1777 1554.81 14.5029 1554.96 14.9346C1555.16 14.4951 1555.43 14.168 1555.77 13.9531C1556.11 13.7363 1556.48 13.6279 1556.89 13.6279ZM1563.01 15.7754C1563.01 16.9121 1562.82 17.957 1562.44 18.9102C1562.07 19.8613 1561.55 20.6689 1560.9 21.333L1559.93 21.333C1560.58 20.5635 1561.07 19.7236 1561.42 18.8135C1561.77 17.9014 1561.94 16.8887 1561.94 15.7754C1561.94 14.6719 1561.77 13.666 1561.42 12.7578C1561.07 11.8496 1560.58 11.0039 1559.93 10.2207L1560.9 10.2207C1561.55 10.8848 1562.07 11.6953 1562.44 12.6523C1562.82 13.6074 1563.01 14.6484 1563.01 15.7754Z" fill="rgb(179,179,179)" fill-rule="nonzero" />
		<path id="" d="M1577.3 11.2168L1578.37 11.2168L1578.37 19.0391L1582.7 19.0391L1582.7 20L1577.3 20L1577.3 11.2168ZM1586.96 13.6279C1587.62 13.6279 1588.15 13.8486 1588.56 14.29C1588.96 14.7295 1589.16 15.3525 1589.16 16.1592L1589.16 20L1588.14 20L1588.14 16.4492C1588.14 15.8555 1588.02 15.3994 1587.78 15.0811C1587.55 14.7607 1587.2 14.6006 1586.73 14.6006C1586.43 14.6006 1586.14 14.6709 1585.87 14.8115C1585.61 14.9502 1585.39 15.1582 1585.22 15.4355C1585.05 15.7109 1584.97 16.0527 1584.97 16.4609L1584.97 20L1583.95 20L1583.95 13.7715L1584.85 13.7715C1584.86 14.1719 1584.89 14.5156 1584.92 14.8027C1585.13 14.4199 1585.41 14.1289 1585.77 13.9297C1586.12 13.7285 1586.52 13.6279 1586.96 13.6279ZM1594.41 13.7949L1594.41 12.6934L1596.97 11.2051L1597.78 11.2051L1597.78 20L1596.7 20L1596.7 12.4883L1594.41 13.7949ZM1603.54 14.3955C1604.06 14.3955 1604.53 14.5176 1604.94 14.7617C1605.34 15.0059 1605.66 15.3418 1605.88 15.7695C1606.11 16.1973 1606.22 16.6836 1606.22 17.2285C1606.22 17.7969 1606.1 18.3008 1605.85 18.7402C1605.6 19.1797 1605.26 19.5215 1604.83 19.7656C1604.4 20.0098 1603.92 20.1318 1603.39 20.1318C1602.81 20.1318 1602.29 19.9863 1601.83 19.6953C1601.38 19.4023 1601.07 18.9756 1600.89 18.415L1601.76 17.9229C1601.9 18.3311 1602.11 18.6396 1602.38 18.8486C1602.66 19.0557 1603 19.1592 1603.39 19.1592C1603.92 19.1592 1604.33 18.9834 1604.63 18.6318C1604.94 18.2803 1605.09 17.8281 1605.09 17.2754C1605.09 16.7402 1604.94 16.2891 1604.65 15.9219C1604.36 15.5527 1603.94 15.3682 1603.39 15.3682C1602.69 15.3682 1602.15 15.6846 1601.76 16.3174L1601.07 15.9688L1601.67 11.1934L1605.82 11.1934L1605.82 12.1279L1602.61 12.1279L1602.26 14.7324C1602.61 14.5078 1603.04 14.3955 1603.54 14.3955ZM1608.4 18.7754C1608.64 18.7754 1608.82 18.8662 1608.97 19.0479C1609.11 19.2275 1609.18 19.5049 1609.18 19.8799C1609.18 20.4248 1609.04 20.873 1608.76 21.2246C1608.47 21.5762 1608.1 21.7959 1607.64 21.8838L1607.64 21.3213C1608.18 21.1533 1608.47 20.7646 1608.5 20.1553C1608.48 20.1631 1608.44 20.167 1608.39 20.167C1608.19 20.167 1608.03 20.0996 1607.92 19.9648C1607.8 19.8281 1607.74 19.6641 1607.74 19.4727C1607.74 19.2715 1607.81 19.1055 1607.93 18.9746C1608.05 18.8418 1608.21 18.7754 1608.4 18.7754ZM1613.87 19.1475C1614.82 19.1475 1615.53 18.7041 1615.97 17.8174L1616.84 18.3213C1616.59 18.8877 1616.21 19.3311 1615.69 19.6514C1615.17 19.9717 1614.57 20.1318 1613.89 20.1318C1613.14 20.1318 1612.47 19.9404 1611.86 19.5576C1611.25 19.1729 1610.77 18.6367 1610.42 17.9492C1610.07 17.2598 1609.89 16.4756 1609.89 15.5967C1609.89 14.7158 1610.07 13.9316 1610.42 13.2441C1610.77 12.5566 1611.25 12.0234 1611.86 11.6445C1612.47 11.2637 1613.14 11.0732 1613.89 11.0732C1614.57 11.0732 1615.17 11.2334 1615.69 11.5537C1616.21 11.8721 1616.59 12.3154 1616.84 12.8838L1615.97 13.3877C1615.53 12.499 1614.82 12.0547 1613.87 12.0547C1613.3 12.0547 1612.81 12.2031 1612.37 12.5C1611.94 12.7969 1611.61 13.2129 1611.37 13.748C1611.14 14.2832 1611.02 14.8994 1611.02 15.5967C1611.02 16.292 1611.14 16.9102 1611.37 17.4512C1611.61 17.9902 1611.94 18.4082 1612.37 18.7051C1612.81 19 1613.3 19.1475 1613.87 19.1475ZM1617.67 16.8799C1617.67 16.2568 1617.81 15.6973 1618.08 15.2012C1618.36 14.7051 1618.72 14.3193 1619.18 14.0439C1619.64 13.7666 1620.13 13.6279 1620.65 13.6279C1621.18 13.6279 1621.68 13.7646 1622.13 14.0381C1622.59 14.3096 1622.95 14.6934 1623.22 15.1895C1623.5 15.6836 1623.63 16.2471 1623.63 16.8799C1623.63 17.5127 1623.5 18.0752 1623.22 18.5674C1622.95 19.0576 1622.59 19.4414 1622.13 19.7188C1621.68 19.9941 1621.18 20.1318 1620.65 20.1318C1620.13 20.1318 1619.63 19.9941 1619.17 19.7188C1618.71 19.4414 1618.35 19.0576 1618.08 18.5674C1617.81 18.0752 1617.67 17.5127 1617.67 16.8799ZM1618.75 16.8799C1618.75 17.3525 1618.83 17.7607 1619 18.1045C1619.17 18.4482 1619.4 18.7119 1619.68 18.8955C1619.97 19.0791 1620.3 19.1709 1620.65 19.1709C1621.02 19.1709 1621.34 19.0791 1621.63 18.8955C1621.92 18.7119 1622.14 18.4482 1622.31 18.1045C1622.47 17.7607 1622.55 17.3525 1622.55 16.8799C1622.55 16.4072 1622.47 15.999 1622.31 15.6553C1622.14 15.3115 1621.92 15.0479 1621.63 14.8643C1621.34 14.6807 1621.02 14.5889 1620.65 14.5889C1620.3 14.5889 1619.97 14.6807 1619.68 14.8643C1619.4 15.0479 1619.17 15.3115 1619 15.6553C1618.83 15.999 1618.75 16.4072 1618.75 16.8799ZM1626.14 20L1625.12 20L1625.12 10.8682L1626.14 10.8682L1626.14 20ZM1629.3 19.0508L1633.27 19.0508L1633.27 20L1627.66 20L1627.66 19.3174L1630.51 16.1475C1631.04 15.5557 1631.41 15.0898 1631.61 14.75C1631.81 14.4102 1631.91 14.04 1631.91 13.6396C1631.91 13.1279 1631.77 12.7324 1631.49 12.4531C1631.21 12.1719 1630.86 12.0312 1630.44 12.0312C1630 12.0312 1629.62 12.1777 1629.3 12.4707C1628.97 12.7617 1628.73 13.1475 1628.59 13.6279L1627.72 13.1357C1627.9 12.4795 1628.25 11.9697 1628.77 11.6064C1629.29 11.2412 1629.87 11.0586 1630.51 11.0586C1630.97 11.0586 1631.4 11.1572 1631.78 11.3545C1632.16 11.5498 1632.47 11.8379 1632.7 12.2188C1632.93 12.5977 1633.04 13.0557 1633.04 13.5928C1633.04 14.1123 1632.91 14.6045 1632.66 15.0693C1632.4 15.5322 1631.95 16.1162 1631.31 16.8213L1629.3 19.0508ZM1636.14 19.0508L1640.11 19.0508L1640.11 20L1634.5 20L1634.5 19.3174L1637.35 16.1475C1637.88 15.5557 1638.25 15.0898 1638.45 14.75C1638.65 14.4102 1638.75 14.04 1638.75 13.6396C1638.75 13.1279 1638.61 12.7324 1638.33 12.4531C1638.05 12.1719 1637.7 12.0312 1637.28 12.0312C1636.84 12.0312 1636.46 12.1777 1636.14 12.4707C1635.81 12.7617 1635.57 13.1475 1635.43 13.6279L1634.56 13.1357C1634.74 12.4795 1635.09 11.9697 1635.61 11.6064C1636.13 11.2412 1636.71 11.0586 1637.35 11.0586C1637.81 11.0586 1638.24 11.1572 1638.62 11.3545C1639 11.5498 1639.31 11.8379 1639.54 12.2188C1639.77 12.5977 1639.88 13.0557 1639.88 13.5928C1639.88 14.1123 1639.75 14.6045 1639.5 15.0693C1639.24 15.5322 1638.79 16.1162 1638.15 16.8213L1636.14 19.0508Z" fill="rgb(179,179,179)" fill-rule="nonzero" />
		<path id="" d="M1653.57 11.2168L1660.09 11.2168L1660.09 12.1631L1657.36 12.1631L1657.36 20L1656.29 20L1656.29 12.1631L1653.57 12.1631L1653.57 11.2168ZM1662.18 13.6279C1662.89 13.6279 1663.46 13.8418 1663.91 14.2695C1664.36 14.6973 1664.58 15.3076 1664.58 16.1006L1664.58 20L1663.68 20C1663.66 19.5918 1663.64 19.3281 1663.63 19.209C1663.44 19.5117 1663.18 19.7412 1662.86 19.8975C1662.54 20.0537 1662.17 20.1318 1661.75 20.1318C1661.35 20.1318 1660.98 20.0586 1660.63 19.9121C1660.28 19.7637 1660 19.543 1659.79 19.25C1659.59 18.957 1659.48 18.6074 1659.48 18.2012C1659.48 17.584 1659.73 17.0977 1660.23 16.7422C1660.73 16.3867 1661.38 16.209 1662.17 16.209C1662.62 16.209 1663.08 16.2686 1663.56 16.3877L1663.56 16.2793C1663.56 15.6953 1663.44 15.2617 1663.21 14.9785C1662.97 14.6934 1662.61 14.5508 1662.13 14.5508C1661.75 14.5508 1661.43 14.6309 1661.17 14.791C1660.92 14.9512 1660.7 15.1875 1660.53 15.5L1659.75 15.0547C1659.94 14.623 1660.25 14.2773 1660.69 14.0176C1661.12 13.7578 1661.62 13.6279 1662.18 13.6279ZM1663.56 17.2402C1663.06 17.1113 1662.6 17.0469 1662.18 17.0469C1661.66 17.0469 1661.26 17.1475 1660.98 17.3486C1660.69 17.5479 1660.55 17.8281 1660.55 18.1895C1660.55 18.5254 1660.67 18.7871 1660.91 18.9746C1661.15 19.1621 1661.46 19.2559 1661.85 19.2559C1662.32 19.2559 1662.72 19.1182 1663.06 18.8428C1663.4 18.5654 1663.56 18.1836 1663.56 17.6973L1663.56 17.2402ZM1669.39 13.6279C1669.87 13.6279 1670.31 13.7578 1670.73 14.0176C1671.15 14.2773 1671.49 14.6533 1671.75 15.1455C1672 15.6377 1672.13 16.2158 1672.13 16.8799C1672.13 17.5518 1672 18.1338 1671.75 18.626C1671.49 19.1182 1671.15 19.4922 1670.73 19.748C1670.31 20.0039 1669.87 20.1318 1669.39 20.1318C1668.98 20.1318 1668.58 20.0322 1668.2 19.833C1667.83 19.6318 1667.53 19.3311 1667.31 18.9307C1667.27 19.2764 1667.25 19.6328 1667.24 20L1666.33 20L1666.33 10.8682L1667.36 10.8682L1667.36 14.7441C1667.59 14.377 1667.88 14.0996 1668.24 13.9121C1668.6 13.7227 1668.99 13.6279 1669.39 13.6279ZM1669.26 19.1709C1669.81 19.1709 1670.24 18.9717 1670.57 18.5732C1670.9 18.1729 1671.06 17.6084 1671.06 16.8799C1671.06 16.1592 1670.9 15.5996 1670.57 15.2012C1670.24 14.8008 1669.81 14.6006 1669.26 14.6006C1668.74 14.6006 1668.29 14.7852 1667.92 15.1543C1667.54 15.5215 1667.36 16.0967 1667.36 16.8799C1667.36 17.415 1667.45 17.8555 1667.63 18.2012C1667.81 18.5449 1668.05 18.793 1668.34 18.9453C1668.63 19.0957 1668.93 19.1709 1669.26 19.1709ZM1682.5 17.5654C1682.5 18.0693 1682.38 18.5156 1682.15 18.9043C1681.92 19.291 1681.58 19.5928 1681.13 19.8096C1680.68 20.0244 1680.15 20.1318 1679.53 20.1318C1678.68 20.1318 1677.95 19.9316 1677.34 19.5312C1676.73 19.1309 1676.33 18.5986 1676.14 17.9346L1677 17.4307C1677.22 17.9834 1677.54 18.4082 1677.96 18.7051C1678.39 19 1678.91 19.1475 1679.55 19.1475C1680.12 19.1475 1680.57 19.0195 1680.89 18.7637C1681.21 18.5078 1681.37 18.1523 1681.37 17.6973C1681.37 17.3281 1681.27 17.0303 1681.07 16.8037C1680.87 16.5752 1680.62 16.3975 1680.33 16.2705C1680.04 16.1416 1679.64 16.001 1679.13 15.8486C1678.56 15.6807 1678.1 15.5205 1677.75 15.3682C1677.4 15.2158 1677.11 14.9883 1676.87 14.6855C1676.63 14.3809 1676.51 13.9805 1676.51 13.4844C1676.51 12.9805 1676.64 12.5469 1676.89 12.1836C1677.15 11.8184 1677.5 11.542 1677.96 11.3545C1678.41 11.167 1678.91 11.0732 1679.47 11.0732C1680.26 11.0732 1680.89 11.2451 1681.37 11.5889C1681.86 11.9326 1682.18 12.3682 1682.35 12.8955L1681.49 13.3994C1681.31 12.9756 1681.05 12.6436 1680.73 12.4033C1680.4 12.1631 1679.97 12.043 1679.44 12.043C1678.89 12.043 1678.46 12.165 1678.13 12.4092C1677.8 12.6533 1677.64 12.9795 1677.64 13.3877C1677.64 13.6924 1677.73 13.9404 1677.91 14.1318C1678.09 14.3232 1678.31 14.4756 1678.59 14.5889C1678.86 14.7002 1679.23 14.8242 1679.7 14.9609C1680.3 15.1367 1680.78 15.3086 1681.15 15.4766C1681.52 15.6445 1681.84 15.8965 1682.1 16.2324C1682.37 16.5684 1682.5 17.0127 1682.5 17.5654ZM1684.25 12.6553C1684.07 12.6553 1683.91 12.5859 1683.77 12.4473C1683.64 12.3066 1683.58 12.1445 1683.58 11.9609C1683.58 11.7754 1683.64 11.6133 1683.77 11.4746C1683.91 11.334 1684.07 11.2637 1684.25 11.2637C1684.44 11.2637 1684.6 11.332 1684.73 11.4688C1684.87 11.6035 1684.93 11.7676 1684.93 11.9609C1684.93 12.1445 1684.87 12.3066 1684.73 12.4473C1684.59 12.5859 1684.44 12.6553 1684.25 12.6553ZM1684.76 20L1683.73 20L1683.73 13.7715L1684.76 13.7715L1684.76 20ZM1690.85 13.7715L1690.85 14.3105L1687.51 19.1357L1690.98 19.1357L1690.98 20L1686.1 20L1686.1 19.4492L1689.46 14.6357L1686.3 14.6357L1686.3 13.7715L1690.85 13.7715ZM1694.63 13.6279C1695.17 13.6279 1695.64 13.7539 1696.04 14.0059C1696.44 14.2578 1696.75 14.5996 1696.97 15.0312C1697.18 15.4629 1697.29 15.9434 1697.29 16.4727C1697.29 16.6953 1697.28 16.8994 1697.25 17.085L1692.76 17.085C1692.8 17.7959 1693 18.3262 1693.37 18.6758C1693.74 19.0234 1694.2 19.1973 1694.76 19.1973C1695.46 19.1973 1695.96 18.917 1696.27 18.3564L1697.06 18.7988C1696.9 19.2227 1696.6 19.5508 1696.16 19.7832C1695.72 20.0156 1695.24 20.1318 1694.7 20.1318C1694.14 20.1318 1693.63 20.0039 1693.17 19.748C1692.71 19.4922 1692.35 19.1182 1692.08 18.626C1691.81 18.1338 1691.68 17.5439 1691.68 16.8564C1691.68 16.1924 1691.81 15.6162 1692.08 15.1279C1692.35 14.6396 1692.71 14.2676 1693.15 14.0117C1693.6 13.7559 1694.09 13.6279 1694.63 13.6279ZM1694.59 14.5654C1694.15 14.5654 1693.75 14.709 1693.42 14.9961C1693.09 15.2832 1692.88 15.7031 1692.79 16.2559L1696.19 16.2559C1696.17 15.7207 1696.01 15.3057 1695.72 15.0107C1695.43 14.7139 1695.06 14.5654 1694.59 14.5654ZM1699.2 15.0195C1699.02 15.0195 1698.86 14.9521 1698.73 14.8174C1698.6 14.6807 1698.53 14.5166 1698.53 14.3252C1698.53 14.1318 1698.6 13.9678 1698.73 13.833C1698.86 13.6963 1699.02 13.6279 1699.2 13.6279C1699.39 13.6279 1699.55 13.6963 1699.69 13.833C1699.82 13.9678 1699.89 14.1318 1699.89 14.3252C1699.89 14.5166 1699.82 14.6807 1699.69 14.8174C1699.55 14.9521 1699.39 15.0195 1699.2 15.0195ZM1699.2 20.1318C1699.02 20.1318 1698.86 20.0645 1698.73 19.9297C1698.6 19.793 1698.53 19.6279 1698.53 19.4346C1698.53 19.2432 1698.6 19.0801 1698.73 18.9453C1698.86 18.8086 1699.02 18.7402 1699.2 18.7402C1699.39 18.7402 1699.55 18.8086 1699.69 18.9453C1699.82 19.0801 1699.89 19.2432 1699.89 19.4346C1699.89 19.6279 1699.82 19.793 1699.69 19.9297C1699.55 20.0645 1699.39 20.1318 1699.2 20.1318ZM1706.14 14.6709L1706.14 17.1318L1707.4 17.1318L1707.4 18.0547L1706.14 18.0547L1706.14 20L1705.07 20L1705.07 18.0547L1701.18 18.0547L1701.18 17.3105L1704.48 11.2051L1705.65 11.2051L1702.43 17.1318L1705.07 17.1318L1705.07 14.6709L1706.14 14.6709Z" fill="rgb(179,179,179)" fill-rule="nonzero" />
		<path id="" d="M1727.18 11.2168L1728.24 11.2168L1728.24 16.4492C1728.24 17.2012 1728.11 17.8555 1727.84 18.4121C1727.56 18.9668 1727.17 19.3926 1726.65 19.6895C1726.14 19.9844 1725.52 20.1318 1724.81 20.1318C1723.74 20.1318 1722.9 19.8037 1722.3 19.1475C1721.69 18.4912 1721.39 17.5918 1721.39 16.4492L1721.39 11.2168L1722.46 11.2168L1722.46 16.2793C1722.46 17.207 1722.66 17.917 1723.06 18.4092C1723.46 18.9014 1724.04 19.1475 1724.81 19.1475C1725.58 19.1475 1726.17 18.9014 1726.57 18.4092C1726.97 17.917 1727.18 17.207 1727.18 16.2793L1727.18 11.2168ZM1729.35 11.2168L1735.87 11.2168L1735.87 12.1631L1733.14 12.1631L1733.14 20L1732.07 20L1732.07 12.1631L1729.35 12.1631L1729.35 11.2168ZM1737.06 11.2168L1742.45 11.2168L1742.45 12.1631L1738.13 12.1631L1738.13 15.1279L1742 15.1279L1742 16.0771L1738.13 16.0771L1738.13 20L1737.06 20L1737.06 11.2168ZM1743.62 16.8066L1743.62 15.9453L1747.98 15.9453L1747.98 16.8066L1743.62 16.8066ZM1753.53 15.2246C1753.98 15.4316 1754.34 15.7354 1754.6 16.1357C1754.86 16.5361 1754.99 16.9961 1754.99 17.5156C1754.99 18.0117 1754.87 18.458 1754.64 18.8545C1754.4 19.251 1754.07 19.5635 1753.64 19.792C1753.21 20.0186 1752.72 20.1318 1752.17 20.1318C1751.6 20.1318 1751.1 20.0205 1750.67 19.7979C1750.24 19.5732 1749.9 19.2607 1749.66 18.8604C1749.42 18.46 1749.31 18.0117 1749.31 17.5156C1749.31 16.9961 1749.44 16.5361 1749.69 16.1357C1749.95 15.7354 1750.32 15.4316 1750.78 15.2246C1750.41 15.0312 1750.12 14.7734 1749.91 14.4512C1749.71 14.127 1749.6 13.7607 1749.6 13.3525C1749.6 12.9365 1749.71 12.5527 1749.93 12.2012C1750.14 11.8477 1750.45 11.5693 1750.84 11.3662C1751.23 11.1611 1751.68 11.0586 1752.17 11.0586C1752.66 11.0586 1753.09 11.1611 1753.47 11.3662C1753.85 11.5693 1754.15 11.8457 1754.36 12.1953C1754.56 12.543 1754.67 12.9287 1754.67 13.3525C1754.67 13.7607 1754.57 14.127 1754.37 14.4512C1754.17 14.7734 1753.89 15.0312 1753.53 15.2246ZM1752.17 11.9961C1751.72 11.9961 1751.37 12.124 1751.11 12.3799C1750.85 12.6357 1750.72 12.9717 1750.72 13.3877C1750.72 13.7959 1750.85 14.1279 1751.11 14.3838C1751.37 14.6396 1751.72 14.7676 1752.17 14.7676C1752.61 14.7676 1752.96 14.6377 1753.22 14.3779C1753.47 14.1182 1753.6 13.7881 1753.6 13.3877C1753.6 12.9795 1753.47 12.6455 1753.22 12.3857C1752.96 12.126 1752.61 11.9961 1752.17 11.9961ZM1752.17 19.1709C1752.69 19.1709 1753.1 19.0195 1753.41 18.7168C1753.72 18.4121 1753.88 18 1753.88 17.4805C1753.88 16.9531 1753.72 16.5332 1753.42 16.2207C1753.12 15.9082 1752.7 15.752 1752.17 15.752C1751.64 15.752 1751.21 15.9082 1750.9 16.2207C1750.6 16.5332 1750.44 16.9531 1750.44 17.4805C1750.44 18.0078 1750.6 18.4219 1750.91 18.7227C1751.22 19.0215 1751.64 19.1709 1752.17 19.1709Z" fill="rgb(179,179,179)" fill-rule="nonzero" />
		<path id="" d="M1773.03 19.1475C1773.99 19.1475 1774.69 18.7041 1775.14 17.8174L1776 18.3213C1775.75 18.8877 1775.37 19.3311 1774.85 19.6514C1774.33 19.9717 1773.73 20.1318 1773.05 20.1318C1772.31 20.1318 1771.63 19.9404 1771.02 19.5576C1770.42 19.1729 1769.94 18.6367 1769.58 17.9492C1769.23 17.2598 1769.06 16.4756 1769.06 15.5967C1769.06 14.7158 1769.23 13.9316 1769.58 13.2441C1769.94 12.5566 1770.42 12.0234 1771.02 11.6445C1771.63 11.2637 1772.31 11.0732 1773.05 11.0732C1773.73 11.0732 1774.33 11.2334 1774.85 11.5537C1775.37 11.8721 1775.75 12.3154 1776 12.8838L1775.14 13.3877C1774.69 12.499 1773.99 12.0547 1773.03 12.0547C1772.47 12.0547 1771.97 12.2031 1771.54 12.5C1771.11 12.7969 1770.77 13.2129 1770.54 13.748C1770.3 14.2832 1770.18 14.8994 1770.18 15.5967C1770.18 16.292 1770.3 16.9102 1770.54 17.4512C1770.77 17.9902 1771.11 18.4082 1771.54 18.7051C1771.97 19 1772.47 19.1475 1773.03 19.1475ZM1783.97 20L1782.66 20L1780.12 16.3994L1780.01 16.3994L1778.38 16.3994L1778.38 20L1777.31 20L1777.31 11.2168L1780.01 11.2168C1780.61 11.2168 1781.14 11.3252 1781.61 11.542C1782.08 11.7568 1782.44 12.0625 1782.7 12.459C1782.97 12.8535 1783.1 13.3076 1783.1 13.8213C1783.1 14.3955 1782.93 14.8936 1782.6 15.3154C1782.28 15.7354 1781.82 16.0371 1781.25 16.2207L1783.97 20ZM1778.38 12.1514L1778.38 15.4648L1779.88 15.4648C1780.56 15.4648 1781.08 15.3154 1781.43 15.0166C1781.79 14.7158 1781.97 14.3174 1781.97 13.8213C1781.97 13.3252 1781.79 12.9229 1781.43 12.6143C1781.08 12.3057 1780.56 12.1514 1779.88 12.1514L1778.38 12.1514ZM1785.02 11.2168L1786.08 11.2168L1786.08 19.0391L1790.42 19.0391L1790.42 20L1785.02 20L1785.02 11.2168ZM1791.81 11.2168L1797.19 11.2168L1797.19 12.1631L1792.88 12.1631L1792.88 15.1279L1796.74 15.1279L1796.74 16.0771L1792.88 16.0771L1792.88 20L1791.81 20L1791.81 11.2168Z" fill="rgb(179,179,179)" fill-rule="nonzero" />
		<path id="" d="M1815.01 19.1475C1815.97 19.1475 1816.67 18.7041 1817.12 17.8174L1817.98 18.3213C1817.73 18.8877 1817.35 19.3311 1816.83 19.6514C1816.31 19.9717 1815.71 20.1318 1815.03 20.1318C1814.29 20.1318 1813.61 19.9404 1813 19.5576C1812.39 19.1729 1811.91 18.6367 1811.56 17.9492C1811.21 17.2598 1811.03 16.4756 1811.03 15.5967C1811.03 14.7158 1811.21 13.9316 1811.56 13.2441C1811.91 12.5566 1812.39 12.0234 1813 11.6445C1813.61 11.2637 1814.29 11.0732 1815.03 11.0732C1815.71 11.0732 1816.31 11.2334 1816.83 11.5537C1817.35 11.8721 1817.73 12.3154 1817.98 12.8838L1817.12 13.3877C1816.67 12.499 1815.97 12.0547 1815.01 12.0547C1814.45 12.0547 1813.95 12.2031 1813.52 12.5C1813.08 12.7969 1812.75 13.2129 1812.51 13.748C1812.28 14.2832 1812.16 14.8994 1812.16 15.5967C1812.16 16.292 1812.28 16.9102 1812.51 17.4512C1812.75 17.9902 1813.08 18.4082 1813.52 18.7051C1813.95 19 1814.45 19.1475 1815.01 19.1475ZM1820.85 12.8486L1821.76 12.8486L1821.76 15.2012L1824.11 15.2012L1824.11 16.1123L1821.76 16.1123L1821.76 18.4648L1820.85 18.4648L1820.85 16.1123L1818.5 16.1123L1818.5 15.2012L1820.85 15.2012L1820.85 12.8486ZM1827.69 12.8486L1828.6 12.8486L1828.6 15.2012L1830.95 15.2012L1830.95 16.1123L1828.6 16.1123L1828.6 18.4648L1827.69 18.4648L1827.69 16.1123L1825.34 16.1123L1825.34 15.2012L1827.69 15.2012L1827.69 12.8486Z" fill="rgb(179,179,179)" fill-rule="nonzero" />
		<path id="" d="M1850.74 11.2051L1852.9 18.2363L1854.89 11.2168L1855.92 11.2168L1853.27 20L1852.42 20L1850.26 13.1973L1848.19 20L1847.35 20L1844.55 11.2168L1845.67 11.2168L1847.83 18.2363L1849.84 11.2051L1850.74 11.2051ZM1857.47 12.6553C1857.29 12.6553 1857.13 12.5859 1856.99 12.4473C1856.86 12.3066 1856.8 12.1445 1856.8 11.9609C1856.8 11.7754 1856.86 11.6133 1856.99 11.4746C1857.13 11.334 1857.29 11.2637 1857.47 11.2637C1857.66 11.2637 1857.82 11.332 1857.95 11.4688C1858.09 11.6035 1858.15 11.7676 1858.15 11.9609C1858.15 12.1445 1858.09 12.3066 1857.95 12.4473C1857.81 12.5859 1857.66 12.6553 1857.47 12.6553ZM1857.98 20L1856.95 20L1856.95 13.7715L1857.98 13.7715L1857.98 20ZM1862.86 13.6279C1863.52 13.6279 1864.05 13.8486 1864.45 14.29C1864.85 14.7295 1865.05 15.3525 1865.05 16.1592L1865.05 20L1864.03 20L1864.03 16.4492C1864.03 15.8555 1863.92 15.3994 1863.68 15.0811C1863.44 14.7607 1863.09 14.6006 1862.63 14.6006C1862.33 14.6006 1862.04 14.6709 1861.77 14.8115C1861.51 14.9502 1861.29 15.1582 1861.12 15.4355C1860.95 15.7109 1860.87 16.0527 1860.87 16.4609L1860.87 20L1859.84 20L1859.84 13.7715L1860.75 13.7715C1860.76 14.1719 1860.79 14.5156 1860.82 14.8027C1861.03 14.4199 1861.31 14.1289 1861.66 13.9297C1862.02 13.7285 1862.42 13.6279 1862.86 13.6279ZM1870.51 15.3066C1871.04 15.4746 1871.43 15.7471 1871.69 16.124C1871.96 16.501 1872.09 16.9648 1872.09 17.5156C1872.09 18.0605 1871.96 18.5312 1871.7 18.9277C1871.44 19.3223 1871.1 19.6221 1870.68 19.8271C1870.26 20.0303 1869.79 20.1318 1869.29 20.1318C1868.65 20.1318 1868.06 19.9678 1867.52 19.6396C1866.98 19.3115 1866.62 18.832 1866.43 18.2012L1867.3 17.709C1867.45 18.1875 1867.71 18.5488 1868.08 18.793C1868.46 19.0371 1868.86 19.1592 1869.29 19.1592C1869.76 19.1592 1870.16 19.0137 1870.47 18.7227C1870.79 18.4297 1870.95 18.0234 1870.95 17.5039C1870.95 16.4316 1870.21 15.8955 1868.75 15.8955L1868.38 15.8955L1868.39 14.9346L1868.81 14.9346C1869.4 14.9346 1869.85 14.791 1870.16 14.5039C1870.47 14.2168 1870.62 13.8486 1870.62 13.3994C1870.62 12.9756 1870.49 12.6436 1870.23 12.4033C1869.96 12.1631 1869.62 12.043 1869.21 12.043C1868.77 12.043 1868.41 12.1719 1868.11 12.4297C1867.81 12.6855 1867.58 13.0527 1867.42 13.5312L1866.55 13.0391C1866.75 12.3926 1867.08 11.9033 1867.57 11.5713C1868.05 11.2393 1868.62 11.0732 1869.27 11.0732C1870.02 11.0732 1870.62 11.2852 1871.08 11.709C1871.53 12.1328 1871.76 12.6885 1871.76 13.376C1871.76 13.8154 1871.66 14.2031 1871.45 14.5391C1871.25 14.875 1870.94 15.1309 1870.51 15.3066ZM1874.95 19.0508L1878.93 19.0508L1878.93 20L1873.32 20L1873.32 19.3174L1876.17 16.1475C1876.7 15.5557 1877.07 15.0898 1877.27 14.75C1877.47 14.4102 1877.57 14.04 1877.57 13.6396C1877.57 13.1279 1877.43 12.7324 1877.15 12.4531C1876.87 12.1719 1876.52 12.0312 1876.09 12.0312C1875.66 12.0312 1875.28 12.1777 1874.95 12.4707C1874.63 12.7617 1874.39 13.1475 1874.25 13.6279L1873.38 13.1357C1873.56 12.4795 1873.9 11.9697 1874.42 11.6064C1874.95 11.2412 1875.53 11.0586 1876.17 11.0586C1876.63 11.0586 1877.05 11.1572 1877.44 11.3545C1877.82 11.5498 1878.13 11.8379 1878.36 12.2188C1878.58 12.5977 1878.7 13.0557 1878.7 13.5928C1878.7 14.1123 1878.57 14.6045 1878.31 15.0693C1878.06 15.5322 1877.61 16.1162 1876.97 16.8213L1874.95 19.0508Z" fill="rgb(179,179,179)" fill-rule="nonzero" />
		<g id="common_chatpush_line" customFrame="url(#clipPath_15)">
			<rect id="common_chatpush_line" width="16.000000" height="16.000000" x="1892.000000" y="8.000000" fill="rgb(51,51,51)" fill-opacity="0" />
			<path id="合并" d="M1899 10C1899 10.0442 1899 10.0877 1899.01 10.1303C1898.81 10.1782 1898.69 10.2209 1898.69 10.2209C1897.12 10.7646 1896 12.2513 1896 14L1896 17.2125C1896 17.7963 1895.74 18.351 1895.3 18.731L1894.13 19.7323C1894.05 19.8477 1894 19.9881 1894 20.1323C1894 20.5005 1894.3 20.799 1894.67 20.799L1897.8 20.799C1897.81 20.922 1897.82 21.0428 1897.85 21.1614C1897.88 21.2921 1897.92 21.4201 1897.97 21.5454C1898.03 21.6709 1898.09 21.7895 1898.16 21.9013C1898.24 22.024 1898.34 22.1384 1898.44 22.2445C1898.55 22.3507 1898.66 22.4443 1898.79 22.5254C1898.9 22.5993 1899.02 22.6627 1899.14 22.7158C1899.27 22.7688 1899.4 22.8097 1899.53 22.8383C1899.68 22.872 1899.84 22.8889 1900 22.8889C1900.16 22.8889 1900.32 22.872 1900.47 22.8383C1900.6 22.8096 1900.73 22.7688 1900.86 22.7158C1900.98 22.6627 1901.1 22.5993 1901.21 22.5254C1901.34 22.4443 1901.45 22.3507 1901.56 22.2445C1901.66 22.1384 1901.76 22.024 1901.84 21.9013C1901.91 21.7895 1901.97 21.6709 1902.03 21.5454C1902.08 21.4201 1902.12 21.2921 1902.15 21.1614C1902.18 21.0428 1902.19 20.922 1902.2 20.799L1905.33 20.799C1905.48 20.799 1905.62 20.7522 1905.73 20.6657C1906.03 20.4448 1906.09 20.0269 1905.87 19.7323L1904.7 18.731C1904.26 18.351 1904 17.7963 1904 17.2125L1904 14C1904 12.2513 1902.88 10.7646 1901.32 10.2212C1901.32 10.2212 1901.19 10.1783 1900.99 10.1303C1901 10.0876 1901 10.0442 1901 10C1901 9.44771 1900.55 9 1900 9C1899.45 9 1899 9.44771 1899 10ZM1898.87 20.799L1901.13 20.799C1901.12 20.8516 1901.11 20.904 1901.1 20.9493L1901.1 20.9493C1901.09 21.0107 1901.07 21.0709 1901.04 21.1299C1901.02 21.1915 1900.99 21.25 1900.95 21.3052C1900.91 21.3715 1900.86 21.4332 1900.8 21.4903C1900.74 21.5474 1900.68 21.5975 1900.62 21.6405C1900.56 21.6764 1900.5 21.7073 1900.44 21.7334C1900.38 21.7583 1900.32 21.778 1900.26 21.7925C1900.18 21.8123 1900.09 21.8222 1900 21.8222C1899.91 21.8222 1899.82 21.8123 1899.74 21.7925C1899.68 21.778 1899.62 21.7583 1899.56 21.7334C1899.5 21.7073 1899.44 21.6764 1899.38 21.6405C1899.32 21.5975 1899.26 21.5474 1899.2 21.4903C1899.14 21.4332 1899.09 21.3715 1899.05 21.3052C1899.01 21.2499 1898.98 21.1915 1898.96 21.1299C1898.93 21.0709 1898.91 21.0107 1898.9 20.9493C1898.89 20.904 1898.88 20.8516 1898.87 20.799ZM1896.13 19.599L1903.87 19.599C1903.52 19.2903 1903.26 18.9426 1903.08 18.5558C1902.89 18.1508 1902.8 17.7031 1902.8 17.2125L1902.8 14C1902.8 13.3313 1902.64 12.7759 1902.33 12.3339C1902.01 11.8981 1901.55 11.5724 1900.93 11.3569C1900.66 11.2661 1900.39 11.2146 1900.12 11.2027L1900.12 11.2027C1900.08 11.2009 1900.04 11.2 1900 11.2C1899.92 11.2 1899.83 11.2037 1899.75 11.2112C1899.52 11.2315 1899.3 11.2792 1899.08 11.3544C1898.45 11.572 1897.98 11.9008 1897.67 12.341C1897.36 12.7822 1897.2 13.3352 1897.2 14L1897.2 17.2125C1897.2 17.703 1897.11 18.1508 1896.92 18.5557L1896.92 18.5558C1896.74 18.9426 1896.48 19.2903 1896.13 19.599Z" fill="rgb(179,179,179)" fill-rule="evenodd" />
		</g>
	</g>
	<path id="矢量 852" d="M0 0L1920 0" stroke="url(#paint_linear_0)" stroke-width="1" />
</svg>
